<?xml version="1.0" standalone="no"?>
<!DOCTYPE svg PUBLIC "-//W3C//DTD SVG 20010904//EN"
 "http://www.w3.org/TR/2001/REC-SVG-20010904/DTD/svg10.dtd">
<svg version="1.0" xmlns="http://www.w3.org/2000/svg"
 width="1995.000000pt" height="1995.000000pt" viewBox="0 0 1995.000000 1995.000000"
 preserveAspectRatio="xMidYMid meet">
<metadata>
Created by potrace 1.14, written by Peter Selinger 2001-2017
</metadata>
<g transform="translate(0.000000,1995.000000) scale(0.100000,-0.100000)"
fill="#000000" stroke="none">
<path d="M0 9975 l0 -9975 1635 0 c1583 0 1635 1 1635 18 0 11 9 27 19 36 11
10 17 25 14 36 -3 12 1 22 10 26 8 3 22 25 32 50 9 24 21 44 26 44 5 0 9 6 9
13 0 6 11 17 25 24 20 9 25 8 25 -3 0 -8 -4 -14 -9 -14 -5 0 -14 -15 -21 -32
-7 -18 -21 -42 -30 -53 -10 -11 -23 -37 -30 -57 -6 -21 -17 -38 -25 -38 -7 0
-15 -11 -17 -25 l-5 -25 232 0 232 0 27 78 c15 42 32 96 37 120 5 24 15 53 24
65 8 12 15 34 15 49 0 15 4 30 10 33 6 3 10 16 10 28 0 12 17 47 38 77 20 30
43 67 49 83 7 15 19 27 28 27 23 0 18 -46 -7 -67 -17 -13 -23 -29 -23 -55 0
-20 4 -40 8 -44 17 -17 6 -34 -23 -34 -24 0 -30 -4 -30 -22 0 -12 -8 -30 -17
-40 -9 -10 -18 -42 -21 -73 -2 -30 -11 -60 -18 -66 -8 -6 -14 -27 -14 -46 0
-23 -9 -46 -25 -65 -14 -16 -25 -34 -25 -39 0 -13 366 -12 391 2 15 7 24 7 34
-1 8 -7 51 -10 116 -8 l104 3 3 40 c3 40 25 75 46 75 20 0 38 -40 31 -71 -7
-29 -30 -39 -38 -16 -2 6 -8 9 -12 5 -4 -4 -5 -14 -2 -23 5 -13 31 -15 161
-15 l154 0 -10 40 c-9 33 -8 44 5 58 9 10 27 42 41 72 13 30 34 66 46 80 12
14 46 62 75 106 29 45 58 85 64 88 6 4 11 16 11 26 0 21 -12 25 -99 34 -71 7
-91 26 -91 87 0 26 4 58 9 71 10 26 114 111 149 123 30 9 126 105 148 146 9
19 13 41 9 57 -8 32 -65 87 -88 83 -9 -1 -37 14 -62 35 -52 43 -56 64 -27 172
16 63 42 101 69 102 6 0 14 8 18 19 3 10 34 44 68 76 74 69 135 128 162 158
18 20 20 36 20 172 0 144 1 151 25 184 41 56 103 111 126 111 11 0 29 9 38 19
27 30 76 38 93 15 17 -23 17 -34 -2 -34 -8 0 -15 -7 -15 -15 0 -10 -10 -15
-30 -15 -19 0 -33 -7 -40 -20 -6 -11 -19 -20 -29 -20 -23 0 -59 -33 -95 -87
-23 -34 -28 -51 -24 -80 3 -21 2 -49 -2 -63 -4 -14 -3 -36 2 -50 6 -17 4 -37
-7 -67 -9 -23 -14 -47 -10 -53 11 -18 -6 -51 -38 -70 -17 -11 -35 -33 -41 -52
-9 -27 -17 -34 -46 -38 -28 -4 -38 -12 -53 -42 -12 -28 -23 -38 -40 -38 -29 0
-47 -18 -47 -47 0 -12 -9 -27 -20 -33 -20 -11 -46 -81 -42 -115 3 -22 61 -80
91 -90 10 -3 24 -19 31 -35 8 -18 20 -30 31 -30 14 0 19 -8 20 -32 1 -18 1
-37 0 -41 -1 -4 4 -17 9 -28 14 -25 5 -55 -19 -62 -12 -3 -22 -19 -28 -43 -7
-31 -16 -43 -46 -57 -23 -11 -37 -24 -37 -36 0 -12 -11 -23 -28 -29 -38 -13
-132 -91 -132 -108 0 -19 43 -36 99 -40 33 -2 52 -10 77 -35 38 -37 45 -69 15
-69 -20 0 -31 -18 -31 -54 0 -13 -9 -31 -20 -41 -11 -10 -25 -36 -32 -57 -6
-22 -19 -43 -29 -48 -9 -5 -27 -28 -39 -52 -12 -23 -35 -58 -51 -77 -28 -35
-40 -91 -19 -91 6 0 29 12 51 27 37 24 91 97 167 223 12 20 30 47 42 59 11 13
20 28 20 32 0 4 18 26 40 49 22 23 40 47 40 54 0 20 38 49 55 43 26 -10 17
-33 -35 -94 -28 -32 -68 -95 -91 -141 -23 -45 -44 -82 -48 -82 -5 0 -19 -21
-32 -47 -25 -49 -61 -89 -119 -135 l-35 -27 256 0 255 -1 29 30 c36 38 48 38
43 0 l-5 -30 56 0 56 0 19 65 c10 36 27 76 37 90 25 31 136 63 209 60 54 -3
130 20 130 39 0 4 11 21 25 38 28 34 34 100 11 133 -7 11 -25 51 -40 89 -24
60 -26 72 -15 100 38 94 97 127 234 128 50 1 113 -5 141 -12 42 -11 56 -11 83
1 32 14 32 15 25 64 -5 38 -14 58 -39 82 -18 17 -35 44 -38 61 -4 20 -15 33
-37 42 -41 17 -70 56 -70 94 0 18 -5 37 -11 43 -15 15 -19 63 -5 63 6 0 17 9
24 20 7 11 19 20 26 20 8 0 16 4 18 9 2 5 12 11 23 13 15 2 21 -3 23 -21 3
-21 1 -23 -22 -17 -23 6 -26 3 -28 -21 -4 -57 2 -75 31 -109 17 -19 39 -51 50
-72 10 -20 28 -46 40 -56 22 -20 47 -89 60 -168 7 -44 6 -47 -16 -53 -12 -3
-23 -12 -23 -20 0 -25 -38 -38 -72 -24 -25 10 -34 10 -59 -5 -19 -11 -46 -16
-74 -15 -24 2 -47 0 -51 -4 -4 -4 -22 -7 -39 -7 -33 0 -111 -48 -121 -75 -3
-7 9 -42 27 -77 25 -50 32 -78 35 -136 3 -73 3 -73 -31 -104 -27 -23 -35 -38
-35 -64 0 -19 4 -34 8 -34 4 0 26 18 47 40 23 23 48 40 62 40 12 0 37 9 55 20
66 40 143 18 150 -42 l3 -33 -78 0 c-62 0 -81 -4 -91 -17 -7 -9 -30 -24 -52
-32 -22 -9 -44 -26 -49 -38 -6 -13 -29 -35 -52 -51 -24 -16 -43 -33 -43 -38 0
-5 2659 -9 6965 -9 l6965 0 0 9975 0 9975 -9975 0 -9975 0 0 -9975z m10741
5193 c-17 -33 -58 -50 -82 -35 -10 6 -19 16 -19 21 0 6 -6 2 -13 -9 -10 -12
-16 -14 -21 -7 -11 18 2 32 29 32 12 0 25 6 28 14 6 16 66 26 81 14 6 -5 5
-17 -3 -30z m273 -14 c9 -3 14 -10 11 -15 -7 -10 -35 0 -35 12 0 11 3 11 24 3z
m-359 -44 c3 -5 -12 -27 -33 -49 -29 -31 -47 -41 -70 -41 -24 0 -33 -6 -44
-30 -7 -16 -18 -30 -24 -30 -5 0 -20 -9 -31 -19 -26 -25 -54 -30 -61 -12 -3 9
0 11 8 6 10 -6 11 -1 6 19 -11 45 61 114 106 103 16 -5 20 0 17 19 -3 25 112
56 126 34z m305 -5 c0 -9 -6 -12 -15 -9 -8 4 -15 10 -15 15 0 5 7 9 15 9 8 0
15 -7 15 -15z m-40 -30 c0 -8 7 -15 15 -15 8 0 15 -4 15 -10 0 -13 -17 -13
-25 0 -4 6 -15 8 -25 5 -10 -3 -22 0 -26 6 -4 7 -3 9 3 6 6 -4 13 0 17 8 7 19
26 19 26 0z m-138 -65 c7 -11 18 -20 25 -20 7 0 13 -9 13 -20 0 -12 12 -32 28
-45 32 -28 23 -44 -14 -25 -22 12 -27 12 -35 0 -5 -8 -7 -23 -5 -33 5 -19 -18
-47 -39 -47 -8 0 -20 -9 -27 -19 -8 -11 -29 -21 -48 -23 -30 -3 -35 0 -32 17
2 16 1 17 -7 5 -18 -26 -13 -52 8 -45 11 3 22 1 26 -5 3 -6 -4 -10 -17 -10
-22 -1 -64 -54 -81 -101 -7 -22 -64 -13 -78 12 -5 11 -14 17 -19 14 -14 -9
-32 34 -34 82 0 23 -4 43 -8 43 -11 0 -10 48 1 55 5 3 16 -4 25 -16 16 -24 36
-18 36 12 0 12 7 19 20 19 12 0 31 12 44 27 20 23 26 25 39 15 22 -19 48 0 99
70 44 62 61 70 80 38z m408 10 c0 -12 -40 -34 -48 -26 -3 3 0 6 6 6 7 0 12 7
12 15 0 8 7 15 15 15 8 0 15 -4 15 -10z m-250 -25 c0 -16 -6 -25 -15 -25 -18
0 -19 16 -2 35 16 19 17 19 17 -10z m114 -29 c35 -12 1 -32 -48 -28 -46 4 -63
23 -31 36 8 3 15 13 15 22 0 16 3 15 23 -3 12 -11 30 -23 41 -27z m-1414 -141
c29 -19 55 -35 59 -35 4 0 18 -11 31 -25 13 -14 29 -25 35 -25 7 0 22 -9 35
-20 19 -16 21 -22 10 -35 -7 -9 -17 -14 -23 -12 -5 1 -28 -15 -52 -37 l-43
-40 22 -19 21 -19 -49 -43 c-29 -26 -66 -48 -92 -54 -24 -6 -44 -17 -44 -24 0
-8 -12 -19 -27 -26 -16 -8 -35 -17 -44 -21 -28 -15 -83 -21 -98 -11 -21 14 -3
50 35 68 19 9 34 21 34 27 0 5 -3 6 -7 3 -3 -4 -12 1 -19 11 -12 16 -13 16
-31 -1 -17 -15 -43 -21 -103 -26 -9 -1 -1 -9 17 -20 26 -16 32 -26 31 -53 0
-18 -2 -36 -4 -40 -3 -3 -28 2 -58 13 -39 13 -69 17 -108 13 -96 -11 -133 -14
-158 -15 -35 -1 -127 24 -142 39 -17 17 -23 15 -34 -10 -15 -33 -6 -58 19 -58
13 0 26 -9 32 -21 9 -19 51 -40 110 -56 11 -2 40 -14 65 -26 42 -21 43 -22 17
-25 -15 -2 -31 -12 -37 -22 -5 -10 -26 -27 -45 -39 -29 -17 -34 -24 -26 -39
12 -22 64 -27 117 -9 21 7 50 11 64 10 55 -6 96 -16 115 -29 11 -8 29 -14 41
-14 11 0 29 -9 39 -20 15 -17 31 -19 127 -19 77 0 118 -5 140 -15 33 -17 87
-11 95 10 7 18 23 18 23 0 0 -8 -8 -17 -17 -20 -11 -5 -13 -10 -6 -17 20 -20
150 21 198 64 13 12 28 16 45 12 81 -19 88 -18 104 14 17 32 43 51 72 51 9 0
22 7 29 17 11 14 13 11 19 -21 6 -31 10 -36 27 -31 13 4 19 2 19 -9 0 -9 5
-16 10 -16 18 0 11 39 -9 49 -31 17 -32 47 0 77 22 21 31 25 42 16 11 -9 20
-3 46 28 18 22 43 47 56 56 23 15 26 14 51 -5 35 -28 50 -26 58 4 4 14 13 25
21 25 8 0 15 7 15 15 0 21 72 56 91 44 20 -13 26 -11 47 11 15 17 24 19 44 11
20 -7 28 -5 41 10 20 22 55 25 63 5 4 -10 15 -13 39 -9 54 9 189 -26 212 -55
10 -12 15 -13 27 -3 22 18 71 4 90 -25 9 -13 23 -24 31 -24 8 0 15 -5 15 -10
0 -15 47 -31 110 -39 49 -5 55 -9 54 -29 0 -16 5 -22 22 -22 12 0 24 -6 27
-14 5 -12 12 -13 36 -3 25 9 33 8 49 -6 10 -9 22 -17 26 -17 21 0 75 -33 69
-43 -3 -6 -1 -7 5 -3 11 7 85 -34 97 -54 3 -5 14 -10 23 -10 10 0 23 -9 30
-20 7 -11 19 -20 27 -20 16 0 31 -43 20 -59 -3 -6 -15 -11 -26 -11 -10 0 -19
-4 -19 -10 0 -5 17 -10 38 -10 52 0 71 -14 55 -39 -17 -27 -9 -45 26 -58 19
-7 30 -19 33 -34 2 -19 8 -23 27 -21 18 3 22 0 18 -12 -5 -12 0 -16 16 -16 16
0 27 -11 41 -40 14 -30 25 -40 43 -40 12 0 23 5 23 11 0 5 11 -3 24 -18 15
-17 21 -32 15 -38 -15 -15 -11 -22 16 -27 13 -3 22 -1 19 3 -7 12 34 31 55 24
26 -8 33 -73 12 -96 -18 -19 -69 -18 -82 2 -5 9 -11 4 -20 -17 -7 -16 -22 -37
-32 -48 -13 -13 -16 -21 -8 -29 15 -15 14 -30 -1 -21 -7 5 -8 3 -4 -5 5 -7 1
-20 -9 -31 -15 -17 -15 -21 4 -57 10 -22 30 -44 44 -50 19 -9 23 -17 20 -37
-4 -21 -1 -26 15 -26 12 0 28 -10 36 -21 11 -17 21 -20 41 -15 19 5 25 3 20
-5 -4 -6 8 -24 30 -41 29 -25 36 -36 32 -57 -6 -32 41 -82 96 -102 35 -12 45
-27 30 -42 -3 -4 -13 -1 -21 6 -13 10 -15 8 -9 -13 4 -14 7 -37 7 -52 0 -21 5
-28 20 -28 28 0 25 -19 -5 -30 -14 -5 -25 -15 -25 -21 0 -6 7 -9 15 -5 8 3 21
-1 29 -9 8 -8 26 -15 41 -15 22 0 26 -4 24 -22 -2 -13 0 -29 5 -36 13 -21 -2
-27 -23 -8 -18 16 -18 16 -13 -9 5 -31 26 -42 46 -26 8 6 27 8 46 4 l33 -6
-21 -18 c-12 -9 -22 -23 -22 -29 0 -8 -8 -7 -25 4 -22 14 -26 15 -31 2 -10
-27 1 -51 21 -49 36 5 65 -6 59 -22 -4 -9 -1 -15 7 -15 10 0 10 -3 2 -11 -8
-8 -17 -7 -34 5 -13 9 -27 16 -31 16 -13 0 -9 -65 4 -78 16 -16 28 -15 28 3 0
8 2 15 4 15 2 0 11 3 20 6 12 4 16 0 16 -15 0 -12 -4 -21 -10 -21 -5 0 -10 -6
-10 -14 0 -8 -7 -16 -15 -20 -8 -3 -15 -10 -15 -16 0 -16 27 -12 34 5 9 25 36
18 36 -10 0 -20 -6 -25 -32 -29 -18 -3 -51 -4 -73 -3 -39 2 -40 1 -37 -30 1
-23 -2 -33 -12 -33 -16 0 -15 -28 1 -38 16 -11 23 -52 8 -52 -7 0 -16 6 -18
13 -8 18 -28 -13 -23 -35 2 -10 0 -21 -5 -24 -5 -3 -9 3 -9 13 0 17 -8 19 -67
17 -38 -1 -78 -5 -90 -9 -18 -6 -23 -3 -23 9 0 9 -6 16 -14 16 -11 0 -13 -10
-9 -40 6 -40 -11 -58 -23 -25 -16 40 -94 -8 -94 -56 0 -24 -22 -24 -37 0 -6
10 -27 21 -46 25 -19 4 -40 13 -47 21 -16 19 -37 9 -44 -21 -5 -20 -13 -24
-41 -24 -24 0 -37 6 -45 20 -13 23 -48 27 -56 5 -4 -8 -11 -12 -18 -8 -6 4
-40 10 -76 13 -59 6 -67 4 -85 -17 -18 -20 -28 -22 -75 -20 -82 5 -91 1 -84
-40 5 -30 3 -35 -10 -30 -9 4 -38 9 -66 13 -40 5 -50 10 -50 26 0 11 -11 23
-26 28 -32 12 -47 4 -39 -20 5 -17 1 -19 -39 -18 -25 0 -52 -4 -58 -10 -7 -5
-33 -15 -56 -22 -37 -9 -47 -9 -61 4 -22 20 -55 21 -74 2 -7 -8 -25 -14 -38
-15 -13 0 -63 -3 -111 -6 -81 -5 -87 -4 -93 15 -4 14 -12 19 -22 16 -8 -3 -19
-6 -24 -6 -5 0 -9 -6 -9 -13 0 -7 -9 -19 -19 -26 -11 -8 -17 -20 -14 -28 3 -8
-3 -13 -17 -13 -12 0 -45 -16 -74 -35 -42 -27 -60 -34 -83 -29 -24 5 -33 1
-47 -21 -9 -14 -15 -32 -13 -38 3 -10 -16 -61 -28 -75 -7 -8 -45 20 -45 33 0
7 -7 21 -16 30 -21 20 -44 3 -44 -32 0 -13 -7 -26 -15 -29 -8 -4 -15 -17 -15
-31 0 -29 -36 -62 -68 -63 -19 0 -22 -5 -20 -27 2 -21 -3 -30 -19 -38 -13 -5
-23 -16 -23 -24 0 -11 3 -11 15 -1 13 11 15 7 15 -26 0 -22 -7 -51 -14 -66
-13 -24 -13 -32 0 -58 9 -16 13 -38 9 -49 -3 -11 1 -24 11 -32 14 -12 14 -14
-2 -26 -13 -9 -18 -28 -18 -70 -1 -32 -5 -61 -10 -65 -6 -4 -4 -13 4 -23 11
-13 11 -18 1 -24 -10 -6 -9 -12 4 -24 20 -21 11 -57 -21 -88 -17 -16 -21 -26
-13 -35 7 -9 5 -23 -6 -50 -9 -23 -13 -50 -9 -71 4 -21 2 -33 -5 -33 -7 0 -11
-25 -11 -70 0 -55 4 -71 18 -79 12 -8 14 -13 5 -19 -6 -4 -15 -32 -19 -62 -3
-30 -13 -63 -22 -72 -14 -16 -13 -20 3 -38 14 -16 15 -22 5 -35 -7 -8 -10 -21
-7 -29 3 -7 -2 -24 -10 -36 -15 -21 -15 -22 6 -15 24 7 26 -2 10 -39 -10 -20
-9 -30 4 -49 14 -22 14 -27 -7 -63 -23 -38 -24 -55 -14 -171 2 -22 18 -33 18
-13 0 6 7 10 15 10 23 0 18 -18 -11 -45 -15 -14 -21 -25 -15 -25 13 0 41 -24
41 -34 0 -3 -5 -5 -12 -3 -8 1 -12 -13 -13 -38 0 -31 6 -45 25 -62 14 -13 20
-23 14 -23 -22 0 -3 -105 21 -114 14 -5 19 -63 16 -167 -1 -40 3 -60 14 -69
19 -16 19 -49 1 -76 -18 -25 -37 -194 -24 -211 6 -7 8 -31 6 -53 -2 -22 0 -40
4 -40 14 0 8 -20 -12 -43 -12 -12 -18 -28 -14 -37 9 -21 8 -62 -1 -84 -5 -12
-2 -29 9 -47 9 -16 15 -33 12 -38 -3 -5 1 -14 9 -21 8 -7 15 -18 15 -25 0 -8
5 -15 11 -17 9 -3 9 -9 1 -25 -10 -18 -8 -23 13 -37 27 -18 32 -45 13 -64 -9
-9 -8 -22 2 -54 7 -24 17 -47 22 -53 4 -5 8 -17 8 -26 0 -10 6 -24 13 -31 7
-7 22 -29 33 -48 10 -19 25 -41 32 -48 6 -7 12 -22 12 -32 0 -10 5 -20 12 -22
15 -5 12 -166 -3 -184 -16 -19 18 -136 45 -156 5 -3 11 -24 12 -46 2 -35 0
-39 -17 -35 -16 4 -19 0 -19 -27 0 -24 4 -31 14 -27 20 8 23 -9 17 -78 -4 -36
-9 -55 -14 -47 -14 20 -24 14 -24 -17 0 -45 -35 -104 -74 -123 -26 -12 -39
-27 -49 -57 -10 -30 -19 -41 -33 -41 -23 0 -67 -37 -67 -56 0 -19 -60 -61
-100 -69 -19 -4 -40 -12 -47 -17 -6 -5 -20 -8 -30 -6 -10 1 -23 -1 -29 -5 -16
-10 -96 -12 -116 -3 -11 5 -24 0 -40 -16 -13 -13 -27 -22 -31 -20 -4 1 -10 -5
-13 -13 -8 -20 -30 -19 -38 1 -5 13 -9 14 -21 4 -8 -7 -20 -8 -27 -3 -19 12
-141 13 -155 1 -7 -5 -17 -7 -22 -4 -5 4 -12 2 -16 -4 -15 -25 -94 6 -111 44
-6 12 -29 25 -61 35 -29 8 -53 21 -53 27 0 6 -14 17 -31 24 -38 16 -110 75
-102 84 4 3 -1 6 -10 6 -10 0 -17 5 -17 10 0 6 -6 10 -12 10 -7 0 -23 16 -36
36 -12 19 -27 32 -33 28 -6 -3 -13 4 -16 16 -5 19 -8 20 -17 9 -17 -21 -56
-41 -56 -28 0 5 -4 8 -9 5 -5 -3 -12 -27 -16 -53 -3 -27 -15 -63 -26 -81 -10
-18 -19 -39 -19 -47 0 -7 -18 -28 -40 -45 -22 -17 -40 -26 -40 -20 0 8 -9 10
-25 6 -30 -8 -51 10 -80 67 -27 52 -42 46 -36 -14 1 -12 -10 -18 -38 -23 -33
-5 -40 -11 -45 -33 -7 -37 -6 -175 2 -188 3 -5 7 -28 8 -50 0 -22 8 -65 17
-95 9 -30 17 -71 17 -91 0 -23 7 -42 20 -54 15 -14 17 -21 9 -31 -14 -17 2
-68 30 -99 10 -11 21 -33 25 -48 4 -15 14 -31 24 -34 9 -3 25 -13 34 -21 16
-14 60 -26 135 -39 28 -4 31 -9 31 -35 -1 -34 39 -74 83 -84 25 -6 32 -24 16
-40 -4 -4 -7 -16 -7 -28 0 -24 -38 -66 -60 -66 -30 0 -96 -66 -109 -109 -6
-23 -16 -41 -22 -41 -16 0 -198 -160 -203 -179 -2 -9 -9 -39 -16 -66 -9 -42
-16 -53 -41 -64 -26 -11 -30 -18 -26 -40 3 -14 -1 -38 -9 -53 -13 -24 -17 -26
-34 -16 -15 10 -22 9 -39 -6 -29 -26 -46 -16 -46 29 0 25 -6 41 -18 49 -15 9
-23 6 -48 -22 -33 -37 -61 -42 -103 -19 -27 15 -31 15 -57 -4 -15 -10 -37 -19
-48 -19 -26 0 -28 -31 -5 -55 14 -14 19 -14 38 -1 13 8 37 12 57 10 24 -3 38
1 46 13 11 14 17 14 38 5 32 -15 41 -38 23 -60 -15 -19 -38 -67 -38 -82 0 -6
7 -10 15 -10 8 0 15 -7 15 -15 0 -13 -4 -14 -22 -5 l-23 11 22 -18 23 -18 -29
-28 c-16 -15 -34 -27 -40 -27 -18 0 9 -48 31 -53 12 -3 17 -10 13 -17 -5 -8
-10 -8 -20 0 -10 8 -19 8 -34 -1 -17 -11 -22 -10 -40 12 -27 32 -27 34 14 58
28 16 35 27 35 51 0 16 -4 30 -10 30 -16 0 -11 52 7 72 12 13 13 22 6 29 -14
14 -53 -10 -53 -32 0 -9 -7 -22 -15 -29 -12 -10 -15 -9 -15 8 0 11 5 22 10 24
6 2 1 9 -10 16 -18 11 -24 9 -46 -13 -25 -25 -64 -34 -64 -15 0 6 6 9 13 8 7
-2 13 9 15 25 3 22 -1 27 -20 29 -44 3 -60 -2 -90 -27 -36 -30 -58 -32 -65 -5
-3 11 -9 17 -14 15 -4 -3 -3 -17 3 -30 9 -19 7 -33 -12 -71 l-22 -47 -13 29
c-7 16 -16 38 -20 49 -6 19 -8 18 -31 -10 -24 -31 -34 -20 -12 14 10 16 7 23
-18 44 -16 14 -32 21 -35 16 -3 -5 -20 -11 -37 -12 -22 -1 -32 -7 -32 -18 0
-9 -7 -19 -15 -23 -16 -6 -21 -51 -6 -60 15 -10 1 -44 -21 -49 -19 -5 -18 -8
13 -46 31 -39 35 -62 7 -45 -21 13 -80 13 -114 -1 -22 -9 -33 -21 -37 -42 -4
-20 -15 -34 -34 -42 -32 -13 -113 -85 -113 -101 0 -5 9 -15 20 -22 13 -8 20
-24 20 -42 0 -16 7 -34 15 -40 14 -10 14 -13 1 -32 -9 -12 -28 -24 -43 -27
-50 -10 -111 -60 -147 -120 -39 -64 -38 -84 2 -89 22 -2 26 -8 24 -26 -3 -18
2 -22 22 -22 19 0 24 -4 19 -16 -4 -11 -13 -13 -34 -9 -29 7 -59 -11 -59 -35
0 -12 -15 -32 -47 -62 -13 -12 -23 -30 -23 -40 0 -10 -6 -18 -14 -18 -19 0
-28 -28 -16 -51 6 -11 8 -24 5 -29 -6 -9 9 -41 34 -72 11 -15 11 -19 -3 -33
-9 -9 -16 -31 -16 -50 0 -30 -3 -33 -34 -37 -31 -3 -35 0 -50 32 -9 20 -16 42
-16 48 0 6 -11 23 -25 38 -29 31 -30 37 -10 54 8 7 15 16 15 21 0 14 -28 11
-33 -3 -3 -8 -6 -6 -6 5 -1 9 -5 17 -10 17 -12 0 -11 52 1 67 7 9 3 21 -11 39
-12 15 -21 33 -21 40 0 8 -5 14 -11 14 -6 0 -9 8 -7 18 3 11 -2 23 -13 30 -14
9 -17 19 -12 47 4 26 1 41 -11 54 -17 18 -17 20 1 29 16 9 18 22 18 89 0 70
-2 78 -19 75 -17 -3 -16 -2 3 19 l21 22 -30 19 c-19 11 -30 26 -30 41 0 13 -5
28 -10 33 -7 7 -4 19 11 38 12 15 20 28 18 29 -2 1 -13 7 -24 13 -11 6 -26 30
-34 54 -12 38 -12 44 3 52 9 5 16 19 16 32 0 12 9 32 20 44 26 28 25 35 -4 28
-34 -8 -50 15 -42 63 4 29 2 40 -9 45 -18 6 -9 36 11 36 8 0 14 7 14 15 0 9
-9 15 -25 15 -25 0 -33 18 -16 36 6 5 7 28 4 52 -5 41 -15 52 -28 32 -3 -5
-12 -7 -21 -3 -11 4 -8 10 13 29 16 13 36 24 46 24 10 0 17 8 17 20 0 15 -7
20 -25 20 -18 0 -25 5 -25 19 0 10 -7 21 -15 25 -24 9 -18 36 8 36 16 0 28 9
35 25 15 34 16 32 -14 39 -17 5 -35 1 -51 -9 -23 -16 -63 -13 -63 5 0 5 -12
10 -27 12 l-26 3 26 31 c33 39 33 44 5 44 -24 1 -58 21 -58 35 0 4 8 14 18 21
16 13 16 13 -3 14 -26 0 -45 18 -38 36 3 8 0 21 -7 29 -7 9 -10 26 -6 41 4 15
2 32 -5 40 -6 7 -9 21 -5 29 3 9 0 18 -8 21 -8 3 -12 13 -9 22 2 9 -5 27 -17
40 -11 12 -16 22 -10 22 5 0 10 5 10 10 0 6 -7 10 -15 10 -8 0 -19 9 -25 20
-8 15 -8 20 3 20 7 0 18 -5 25 -12 8 -8 12 -8 12 -1 0 6 -6 13 -14 16 -10 4
-12 20 -9 59 2 31 -2 63 -9 77 -11 21 -10 25 10 39 29 19 30 62 1 62 -15 0
-19 -5 -15 -15 7 -19 -8 -19 -28 0 -8 8 -24 15 -35 15 -12 0 -21 6 -21 14 0
19 32 30 42 14 4 -7 8 -9 8 -4 0 6 5 5 12 -2 17 -17 30 -15 26 4 -2 9 -19 22
-38 28 -40 13 -69 59 -53 85 12 19 -12 71 -47 103 -17 16 -24 17 -35 8 -13
-10 -15 -8 -16 16 -1 16 -1 35 0 42 1 8 -7 16 -17 19 -28 7 -34 41 -13 62 9 9
15 23 13 31 -3 7 3 17 12 22 9 5 16 16 16 23 0 8 4 15 9 15 5 0 4 11 -2 25
-14 30 -27 32 -34 5 -4 -16 -9 -18 -19 -9 -10 8 -15 3 -22 -23 -11 -45 -42
-51 -42 -9 0 17 -5 31 -11 31 -6 0 -9 -7 -5 -15 3 -9 0 -15 -9 -15 -8 0 -15 5
-15 11 0 6 -7 17 -15 25 -23 24 -18 34 16 32 20 -2 34 2 37 10 3 11 0 12 -16
3 -16 -9 -21 -7 -25 10 -5 17 -9 19 -26 9 -18 -9 -21 -8 -21 12 0 13 -4 29 -9
37 -7 11 -10 9 -15 -7 -7 -22 -42 -36 -52 -21 -3 6 -3 17 0 26 7 18 -9 33 -38
33 -30 0 -66 40 -66 72 0 33 -15 36 -32 8 -7 -11 -22 -19 -33 -19 -17 1 -17 2
-2 6 24 6 24 73 -1 80 -21 5 -22 44 -2 68 12 14 12 18 -1 26 -21 13 -27 11
-34 -11 -3 -11 -12 -20 -18 -20 -15 1 -41 22 -44 36 -1 5 -18 27 -37 48 -28
31 -33 43 -25 57 10 20 2 69 -12 69 -4 0 -12 -7 -17 -16 -8 -14 -10 -12 -16
10 -4 15 -11 24 -17 21 -13 -9 -2 84 12 102 7 8 8 13 1 13 -20 0 -20 29 -1 54
16 21 17 26 5 26 -25 0 -56 54 -56 98 0 31 -5 45 -22 56 -12 9 -19 16 -14 16
5 0 2 10 -6 23 -15 23 -13 51 3 42 5 -4 6 2 2 11 -4 11 -8 13 -11 6 -2 -7 -8
-12 -13 -12 -6 0 -8 4 -5 8 3 5 -8 6 -25 4 -22 -3 -29 0 -29 13 0 13 6 16 25
13 28 -6 45 10 24 22 -7 5 -14 17 -15 26 -3 21 -33 46 -49 41 -12 -5 -7 -49 7
-58 10 -7 0 -59 -12 -59 -13 0 -32 89 -29 140 0 8 1 47 2 85 2 70 28 152 45
141 5 -3 7 5 5 18 -5 24 20 74 44 89 7 4 13 15 13 22 0 8 5 15 10 15 6 0 10 9
10 20 0 10 4 29 9 42 21 54 40 131 35 139 -3 5 2 43 12 83 16 69 16 75 1 91
-19 18 -22 35 -7 35 5 0 16 13 24 28 14 27 21 90 32 277 3 54 9 92 17 97 9 6
9 10 -1 17 -11 7 -10 16 7 48 11 22 18 43 14 46 -3 4 -2 14 3 24 10 23 11 30
13 76 1 30 5 37 21 37 24 0 26 16 3 28 -20 11 -10 44 11 36 8 -3 17 0 21 5 3
6 11 8 17 5 5 -4 21 -1 34 7 20 10 28 10 49 -1 18 -10 22 -17 15 -25 -8 -9 -4
-14 12 -18 15 -4 26 0 35 13 18 26 33 25 33 0 0 -11 8 -24 18 -27 22 -9 40
-31 53 -65 6 -16 15 -28 20 -28 4 0 6 -6 3 -14 -7 -17 28 -30 56 -21 13 4 20
2 20 -7 0 -15 52 -58 69 -58 6 0 15 -9 22 -21 7 -14 17 -19 30 -16 10 3 19 1
19 -5 0 -5 4 -6 10 -3 6 3 7 -1 4 -10 -10 -25 4 -59 28 -72 22 -11 52 -26 126
-60 17 -8 32 -22 32 -30 0 -8 5 -11 10 -8 6 3 13 0 16 -8 4 -12 13 -12 53 -1
27 7 67 10 90 7 27 -4 41 -2 41 6 0 16 27 13 34 -4 8 -23 25 -18 36 10 9 24
30 35 30 15 0 -5 11 -10 25 -10 29 0 34 23 8 40 -16 10 -15 11 6 6 13 -3 36 1
50 8 20 10 42 11 95 4 56 -8 72 -7 84 5 11 11 22 13 46 6 17 -5 72 -8 121 -7
62 1 97 -3 112 -12 18 -12 26 -12 46 -1 19 10 29 10 46 1 12 -6 48 -10 79 -9
32 1 82 -5 116 -15 60 -19 133 -17 145 2 3 6 18 13 33 17 14 4 39 19 54 34 43
42 64 51 90 39 18 -8 33 -4 79 21 32 17 62 28 66 25 5 -3 9 2 9 10 0 9 6 16
13 16 6 0 3 6 -7 12 -15 8 -22 7 -31 -6 -11 -15 -14 -15 -25 -1 -8 10 -23 14
-39 11 -14 -3 -41 -2 -60 2 -26 6 -45 3 -73 -11 -35 -17 -40 -18 -69 -3 -42
21 -65 20 -89 -4 -17 -17 -22 -18 -47 -5 -24 12 -29 12 -44 -1 -26 -23 -77
-35 -91 -20 -14 13 -91 16 -104 4 -12 -12 -54 -9 -54 3 0 9 -19 10 -67 4 -130
-15 -166 -14 -211 7 -33 16 -46 17 -57 8 -10 -8 -26 -8 -65 4 -62 18 -140 56
-140 68 0 4 -6 8 -14 8 -8 0 -17 7 -20 16 -3 8 -10 13 -15 10 -5 -3 -14 8 -21
24 -10 25 -10 34 4 55 9 14 25 25 36 25 10 0 21 4 25 10 3 5 11 7 18 4 7 -2
24 7 37 21 25 27 50 31 82 14 18 -10 25 -7 49 19 33 35 36 47 14 59 -11 7 -14
18 -9 41 6 29 10 32 41 32 20 0 32 4 28 10 -3 5 0 7 8 4 8 -3 27 -29 42 -57
16 -29 41 -68 57 -87 15 -19 28 -40 28 -47 0 -13 111 -81 183 -112 30 -13 78
-21 146 -24 98 -5 105 -4 189 29 172 68 182 76 256 208 26 46 57 134 74 211 4
17 7 58 7 92 l-1 62 41 -1 c27 0 54 -10 83 -29 24 -16 49 -29 57 -29 7 0 32
-24 56 -52 48 -60 62 -75 117 -135 35 -38 43 -42 70 -37 27 5 33 3 43 -19 10
-22 15 -24 36 -16 35 13 76 11 98 -4 27 -21 12 -59 -35 -91 -22 -14 -40 -30
-40 -35 0 -5 19 -11 43 -13 32 -4 46 0 60 14 10 10 31 18 48 18 22 0 32 6 38
23 5 12 6 27 4 34 -3 6 0 20 5 29 7 13 3 29 -17 63 -14 25 -33 59 -41 75 -8
16 -28 41 -44 55 -135 121 -200 221 -142 221 8 0 19 7 26 15 14 17 -2 38 -38
49 -25 8 -29 38 -7 56 9 7 16 11 18 9 1 -2 7 -13 13 -24 7 -11 19 -19 28 -19
9 1 23 -12 32 -31 8 -18 29 -44 47 -57 17 -12 39 -31 48 -42 49 -52 98 -96
110 -96 6 0 28 -13 49 -30 21 -16 45 -30 54 -30 27 0 66 -31 66 -51 0 -11 6
-22 13 -25 14 -5 17 -77 4 -90 -15 -15 -7 -32 14 -27 15 4 19 11 15 27 -6 25
2 39 31 55 20 10 22 17 18 61 -5 43 -1 55 25 92 22 32 30 58 34 103 3 33 8 86
12 117 5 42 3 62 -7 74 -10 13 -10 17 2 25 9 6 10 12 4 17 -6 4 -11 46 -10 97
0 65 -5 102 -19 135 -10 25 -18 55 -18 67 0 12 -8 23 -19 26 -13 4 -19 14 -19
36 0 17 -7 52 -16 78 -13 38 -14 51 -4 67 8 13 9 21 3 23 -7 3 -8 17 -3 38 6
25 3 41 -10 62 -29 49 -31 94 -4 126 33 39 32 85 -1 93 -30 8 -32 20 -4 34 11
7 18 14 15 17 -3 4 -1 12 6 20 8 10 8 28 -2 71 -17 72 -27 92 -46 92 -13 0
-15 -8 -12 -36 4 -32 3 -34 -9 -18 -7 10 -13 24 -13 31 0 7 -5 13 -11 13 -7 0
-9 -10 -7 -24 3 -13 -1 -31 -7 -40 -11 -14 -17 -15 -39 -5 -20 9 -26 19 -26
43 0 21 -7 36 -20 44 -23 14 -40 8 -40 -13 0 -25 -29 -25 -36 0 -3 14 -10 25
-15 25 -5 0 -9 6 -9 13 0 7 -18 31 -40 52 -22 21 -40 45 -40 52 0 23 -34 13
-64 -17 -21 -21 -36 -29 -50 -24 -38 10 -66 27 -66 40 0 7 -11 21 -25 32 -14
11 -25 24 -25 28 0 5 -9 23 -21 39 -15 23 -19 25 -14 8 3 -12 1 -24 -5 -28 -5
-3 -10 -15 -10 -26 0 -22 -31 -26 -52 -6 -36 35 -116 44 -139 15 -15 -19 -18
-19 -40 -5 -18 12 -45 15 -104 13 -44 -1 -88 1 -97 6 -9 4 -29 9 -45 11 -15 2
-38 9 -51 16 -36 19 -160 16 -183 -5 -18 -17 -84 -19 -306 -14 -23 1 -57 -5
-75 -14 -44 -21 -130 -37 -143 -26 -16 14 -160 6 -179 -9 -22 -18 -101 -23
-157 -9 -40 9 -46 15 -46 36 0 29 -15 39 -51 38 -24 -1 -27 -6 -30 -38 -3 -39
5 -47 26 -26 9 9 12 9 12 0 0 -7 -4 -12 -9 -12 -5 0 -11 -9 -14 -20 -3 -11
-13 -20 -24 -20 -10 -1 -31 -11 -47 -25 -28 -22 -30 -23 -55 -7 -14 9 -35 25
-46 35 -19 17 -20 17 -32 -8 -8 -14 -19 -25 -26 -25 -7 -1 -28 -14 -47 -30
-19 -17 -39 -30 -46 -30 -10 0 -35 -18 -79 -59 -11 -10 -35 -26 -52 -35 -18
-9 -33 -23 -33 -31 0 -8 -7 -15 -15 -15 -8 0 -15 -7 -15 -15 0 -11 -11 -15
-38 -15 -27 0 -48 -8 -67 -24 -38 -33 -104 -41 -129 -17 -18 19 -18 19 3 30
24 13 28 31 6 31 -8 0 -15 9 -15 20 0 20 2 26 33 88 18 35 19 32 -27 46 -23 7
-29 66 -9 83 17 13 16 14 -8 9 -35 -7 -42 2 -24 31 9 13 11 23 5 23 -5 0 -9 3
-9 8 4 24 -4 40 -22 45 -18 5 -19 9 -9 27 6 12 13 31 16 43 2 11 11 25 20 30
16 9 16 11 0 23 -14 10 -15 17 -7 32 8 16 20 19 60 18 30 0 46 3 41 8 -5 5 -1
20 10 37 11 15 18 34 14 42 -3 9 3 16 15 20 12 3 21 13 21 25 0 12 9 22 21 25
18 5 21 11 15 37 -5 26 -2 33 14 37 11 3 20 12 20 19 0 8 14 26 30 41 43 38
41 113 -4 113 -26 0 -34 41 -11 60 8 7 15 20 15 30 0 21 23 42 40 38 16 -4 32
49 25 79 -4 17 4 31 29 55 54 53 71 65 99 72 14 3 29 15 32 27 4 11 16 24 28
30 53 22 78 45 71 63 -5 12 62 36 101 36 15 0 28 7 32 18 10 27 26 32 50 16
15 -10 23 -11 23 -3 0 7 10 9 29 6 20 -4 37 0 53 12 13 10 41 26 63 35 101 44
125 56 125 66 0 5 6 10 14 10 8 0 16 7 20 15 3 8 11 15 19 15 7 0 21 14 31 31
10 16 29 34 43 40 16 6 22 13 17 21 -5 7 -7 27 -5 44 2 26 -5 39 -43 74 -53
50 -57 64 -18 56 23 -5 33 1 76 48 42 48 51 54 72 46 18 -7 26 -5 37 10 8 11
28 25 45 31 18 6 32 15 32 19 0 5 8 8 18 8 29 -2 105 23 147 47 22 13 60 29
85 36 25 7 49 16 54 21 6 4 17 8 25 8 8 0 23 7 33 17 10 9 18 11 18 5 0 -7 20
-1 46 13 26 14 54 25 63 25 9 0 27 12 40 25 13 14 31 26 40 27 31 2 36 4 58
16 12 7 31 12 42 12 11 0 23 5 26 10 10 15 56 12 76 -6 20 -18 37 -12 49 21
11 30 100 76 134 69 18 -3 38 3 58 18 22 15 33 18 36 10 5 -17 22 -15 22 3 0
9 6 12 15 9 8 -4 31 1 51 11 20 9 38 14 41 11 3 -3 14 -1 24 5 21 11 26 39 7
40 -58 4 -70 7 -84 21 -22 22 -3 59 26 51 13 -4 20 0 20 10 0 8 11 18 25 21
14 4 25 11 25 17 0 22 64 90 82 86 12 -4 21 5 31 32 9 20 29 51 45 69 32 34
53 34 82 0 21 -25 61 -31 85 -13 16 13 18 19 7 35 -19 31 -15 50 12 50 18 0
23 4 19 18 -6 23 21 46 43 38 11 -4 15 -2 11 7 -3 7 6 24 20 37 24 23 26 23
88 11 56 -11 67 -11 87 3 12 9 18 16 12 16 -5 0 -15 -5 -22 -12 -9 -9 -12 -8
-12 5 0 22 -60 54 -70 37 -6 -9 -11 -7 -19 8 -8 15 -7 23 5 33 8 7 13 17 11
23 -3 8 6 10 27 8 54 -6 113 16 166 63 50 45 73 54 85 35 3 -5 17 -10 31 -10
14 0 27 -7 30 -15 9 -22 23 -18 34 10 5 14 14 25 20 25 5 0 10 6 10 13 0 17
92 97 112 97 10 0 18 -4 18 -10 0 -16 30 -12 48 6 15 15 17 15 33 -5 10 -12
41 -37 69 -56z m-550 -10 c0 -8 -4 -15 -10 -15 -5 0 -10 -7 -10 -15 0 -20 -53
-20 -69 -1 -10 12 -7 18 16 30 37 20 73 20 73 1z m1317 -97 c-3 -8 -6 -5 -6 6
-1 11 2 17 5 13 3 -3 4 -12 1 -19z m-51 -34 c-6 -21 -9 -23 -26 -14 -24 13
-28 55 -5 47 8 -4 18 -1 22 5 10 18 16 -7 9 -38z m994 -4 c0 -5 -4 -10 -10
-10 -5 0 -10 5 -10 10 0 6 5 10 10 10 6 0 10 -4 10 -10z m-890 -62 c0 -5 -7
-8 -15 -8 -8 0 -15 5 -15 10 0 6 -11 8 -25 4 -16 -4 -25 -2 -25 6 0 7 7 10 14
7 9 -4 18 2 22 15 6 21 7 21 25 -3 10 -13 19 -27 19 -31z m864 21 c-3 -5 -10
-7 -15 -3 -5 3 -7 10 -3 15 3 5 10 7 15 3 5 -3 7 -10 3 -15z m96 -5 c0 -12 -5
-14 -17 -9 -10 5 -26 8 -35 9 -34 1 -18 16 17 16 25 0 35 -4 35 -16z m70 -8
c0 -18 -26 -40 -34 -27 -9 14 4 41 20 41 8 0 14 -6 14 -14z m47 -42 c-3 -3
-12 -4 -19 -1 -8 3 -5 6 6 6 11 1 17 -2 13 -5z m-2801 -142 c-4 -11 -18 -22
-32 -25 -29 -5 -43 10 -17 20 10 4 24 13 32 20 17 17 25 10 17 -15z m3579
-913 c12 -19 -5 -23 -22 -6 -16 16 -16 17 -1 17 9 0 20 -5 23 -11z m-5315
-259 c0 -5 -5 -10 -11 -10 -5 0 -7 5 -4 10 3 6 8 10 11 10 2 0 4 -4 4 -10z
m5375 -225 c0 -16 -6 -30 -12 -32 -8 -3 -13 4 -13 16 0 11 -5 23 -11 27 -8 4
-7 9 2 15 22 14 34 5 34 -26z m-6205 -105 c0 -5 -2 -10 -4 -10 -3 0 -8 5 -11
10 -3 6 -1 10 4 10 6 0 11 -4 11 -10z m-34 -35 c4 -8 12 -15 20 -15 8 0 11 -6
7 -16 -5 -15 -8 -15 -17 -2 -6 8 -19 17 -29 21 -10 4 -15 11 -12 17 9 15 25
12 31 -5z m6359 -15 c3 -5 1 -10 -4 -10 -6 0 -11 5 -11 10 0 6 2 10 4 10 3 0
8 -4 11 -10z m-6400 -60 c3 -5 1 -10 -5 -10 -5 0 -18 -16 -27 -35 -18 -37 -31
-43 -51 -23 -16 16 -15 38 2 38 8 0 24 9 37 20 27 22 35 24 44 10z m-125 -100
c0 -11 -2 -20 -4 -20 -2 0 -6 9 -9 20 -3 11 -1 20 4 20 5 0 9 -9 9 -20z m6627
-52 c-3 -8 -6 -5 -6 6 -1 11 2 17 5 13 3 -3 4 -12 1 -19z m-6607 -34 c0 -8 -4
-12 -10 -9 -5 3 -10 10 -10 16 0 5 5 9 10 9 6 0 10 -7 10 -16z m6710 -284 c0
-5 -4 -10 -10 -10 -5 0 -10 5 -10 10 0 6 5 10 10 10 6 0 10 -4 10 -10z m-139
-53 c-1 -12 -15 -9 -19 4 -3 6 1 10 8 8 6 -3 11 -8 11 -12z m175 -29 c-5 -26
-3 -29 17 -26 16 2 23 -3 25 -19 2 -13 0 -23 -5 -23 -14 1 -53 38 -53 51 0 8
-7 6 -20 -6 -18 -16 -20 -16 -20 -2 0 10 5 17 10 17 6 0 10 6 10 13 0 18 21
37 33 30 5 -3 6 -19 3 -35z m-1216 -298 c0 -5 -2 -10 -4 -10 -3 0 -8 5 -11 10
-3 6 -1 10 4 10 6 0 11 -4 11 -10z m-3192 -149 c-15 -6 -20 7 -12 31 l8 23 6
-25 c3 -14 2 -27 -2 -29z m3432 -862 c0 -8 13 -9 39 -5 23 3 41 2 43 -4 2 -6
15 -3 33 6 24 12 41 13 90 5 33 -5 72 -8 86 -5 15 3 30 1 33 -5 4 -6 20 -11
35 -11 20 0 30 -6 34 -20 3 -11 1 -20 -4 -20 -5 0 -9 -6 -9 -14 0 -7 -14 -25
-31 -38 -25 -22 -41 -26 -95 -27 -36 0 -69 -3 -74 -6 -11 -6 -100 36 -100 47
0 4 -9 8 -19 8 -13 0 -21 -8 -23 -22 -4 -28 -37 -35 -70 -16 -13 7 -30 13 -38
13 -8 0 -16 8 -18 18 -4 22 17 77 29 77 5 0 9 7 9 15 0 9 9 15 25 15 14 0 25
-5 25 -11z m-4152 -79 c12 -12 22 -25 22 -30 0 -6 4 -10 9 -10 5 0 8 8 7 18
-1 12 8 18 33 20 32 3 33 2 27 -22 -4 -15 -2 -26 3 -26 6 0 8 -7 5 -15 -4 -8
1 -17 10 -21 11 -4 14 -13 10 -29 -4 -17 -1 -24 13 -28 13 -3 10 -5 -8 -6 -15
0 -32 6 -39 14 -18 21 -52 19 -73 -5 -10 -12 -22 -18 -27 -15 -5 3 -18 1 -29
-4 -12 -7 -54 -8 -112 -4 -76 5 -93 9 -96 24 -3 9 -16 20 -29 23 -14 4 -22 11
-19 16 14 23 -12 6 -69 -44 -65 -57 -60 -55 -226 -69 -14 -1 -32 -10 -40 -19
-29 -35 -120 -17 -120 23 0 10 -8 20 -17 22 -11 3 -7 5 10 6 25 1 33 13 28 44
-2 11 34 8 46 -4 8 -8 13 -6 17 9 9 26 144 81 167 67 4 -3 27 4 52 14 53 23
95 30 98 16 1 -5 10 -16 20 -23 16 -11 22 -11 35 2 8 9 20 16 26 16 5 0 17 9
27 21 15 19 18 20 61 6 25 -9 56 -14 70 -13 14 1 28 -3 31 -8 8 -11 39 0 39
14 0 5 -7 10 -16 10 -14 0 -14 3 -4 15 17 20 32 19 58 -5z m-778 -240 c-19
-13 -30 -13 -30 0 0 6 10 10 23 10 18 0 19 -2 7 -10z m-80 -30 c0 -5 -5 -10
-11 -10 -5 0 -7 5 -4 10 3 6 8 10 11 10 2 0 4 -4 4 -10z m24 -29 c3 -5 -1 -11
-9 -14 -9 -4 -12 -1 -8 9 6 16 10 17 17 5z m4062 -56 c-9 -54 -2 -68 24 -55
61 31 57 31 63 -7 8 -44 -11 -80 -59 -112 -19 -13 -51 -41 -72 -61 -34 -34
-62 -42 -62 -18 0 6 -8 16 -17 23 -15 11 -14 14 9 29 19 12 24 23 20 41 -2 14
-8 22 -14 19 -5 -3 -7 14 -5 41 4 39 12 54 51 96 58 62 70 63 62 4z m1087 24
c9 -34 -3 -49 -39 -49 -36 0 -43 14 -24 51 15 26 56 25 63 -2z m-10083 7 c0
-3 -4 -8 -10 -11 -5 -3 -10 -1 -10 4 0 6 5 11 10 11 6 0 10 -2 10 -4z m9838
-75 c3 -26 0 -32 -14 -29 -27 5 -40 33 -24 52 19 24 35 14 38 -23z m-226 -49
c-2 -15 2 -47 8 -72 6 -25 15 -63 20 -85 4 -22 14 -56 21 -75 7 -19 19 -54 27
-77 8 -24 18 -43 22 -43 4 0 13 -14 20 -30 7 -17 20 -36 29 -43 9 -7 21 -21
27 -32 6 -11 22 -22 35 -23 13 -2 28 -11 35 -19 6 -9 16 -13 23 -9 6 4 19 2
27 -5 9 -7 43 -15 77 -16 34 -2 64 -8 68 -14 4 -6 15 -6 33 1 19 7 33 7 48 -1
12 -6 40 -8 67 -5 154 21 154 21 170 30 8 5 27 9 42 8 16 0 31 4 34 9 4 5 14
9 25 9 10 0 21 7 24 17 6 15 8 14 20 -2 8 -12 20 -16 35 -12 35 9 28 -41 -11
-74 -26 -23 -35 -26 -57 -18 -14 6 -30 14 -36 19 -6 5 -17 5 -25 0 -8 -6 -26
-10 -40 -10 -19 0 -22 -2 -10 -10 23 -14 -13 -24 -39 -10 -23 12 -45 5 -36
-11 4 -5 0 -9 -7 -9 -7 0 -25 -6 -39 -14 -17 -8 -44 -12 -75 -9 -27 3 -59 5
-71 4 -68 -4 -92 -4 -130 3 -40 8 -42 7 -49 -18 -7 -31 -29 -34 -52 -7 -11 13
-34 21 -66 24 -39 3 -54 10 -72 32 -23 30 -50 31 -68 2 -9 -14 -6 -26 12 -57
12 -21 22 -50 22 -64 0 -21 5 -26 25 -26 15 0 24 -5 23 -12 -2 -9 8 -12 27
-11 92 5 114 4 153 -7 39 -10 43 -14 37 -33 -3 -12 -8 -33 -9 -47 -4 -36 -24
-70 -42 -70 -9 0 -14 -6 -11 -12 2 -7 18 -13 35 -13 29 0 32 -3 32 -30 0 -44
49 -95 90 -95 23 0 33 5 37 20 6 24 63 29 63 6 0 -8 16 -16 40 -20 22 -3 40
-11 40 -16 0 -6 6 -10 13 -10 6 0 20 -14 29 -30 17 -30 38 -40 38 -18 0 9 3 8
13 -1 10 -11 10 -14 0 -18 -24 -9 -13 -22 23 -29 23 -4 39 -3 43 5 4 6 25 10
47 10 64 -3 115 7 136 26 16 13 22 14 28 4 5 -7 30 -13 61 -13 33 -1 54 -6 57
-14 2 -7 0 -12 -5 -11 -4 1 -15 1 -23 0 -12 -1 -12 -4 3 -15 10 -8 27 -12 37
-9 14 4 20 0 20 -11 0 -14 3 -14 22 -4 13 7 27 19 33 26 8 10 18 10 50 -3 36
-15 40 -16 51 -1 13 19 34 21 34 4 0 -7 5 -5 11 5 14 24 32 21 59 -10 l23 -27
23 27 c24 28 76 37 90 16 3 -6 15 -9 25 -6 13 3 19 0 19 -10 0 -11 6 -13 23
-8 30 10 79 8 86 -4 10 -15 86 -18 83 -3 -1 7 9 18 23 24 l25 11 -32 28 c-30
26 -31 28 -11 29 35 0 37 20 3 32 -38 13 -28 27 20 29 53 2 70 9 70 26 0 11 6
14 23 9 67 -19 67 -19 76 5 8 20 10 21 10 5 1 -18 2 -18 20 -2 15 13 18 26 14
52 -3 20 -1 34 5 34 5 0 8 8 5 19 -2 10 3 26 13 36 17 16 19 16 37 -9 20 -28
50 -36 41 -11 -8 21 29 15 56 -10 29 -26 26 -46 -6 -43 -15 2 -29 -2 -31 -8
-2 -7 4 -11 14 -10 13 1 18 -7 19 -29 2 -63 12 -74 62 -72 37 1 47 -2 50 -16
3 -13 -4 -17 -27 -17 -26 0 -31 -4 -31 -25 0 -34 22 -32 58 5 17 17 38 30 46
30 19 0 21 -16 4 -23 -26 -10 -44 -122 -27 -167 1 -3 1 -8 0 -12 0 -4 11 -16
24 -26 14 -11 25 -26 25 -33 -1 -10 -4 -9 -14 3 -8 11 -20 15 -33 12 -20 -5
-20 -8 -8 -37 8 -20 11 -51 8 -79 -4 -37 -2 -48 8 -48 9 -1 4 -9 -10 -21 -21
-17 -23 -23 -13 -39 10 -16 9 -21 -5 -29 -14 -7 -17 -21 -15 -63 1 -40 -1 -49
-9 -35 -17 29 -39 21 -35 -13 2 -20 -1 -30 -10 -30 -15 0 -45 -40 -39 -51 3
-4 -1 -9 -9 -12 -7 -3 -13 -17 -13 -32 0 -14 -8 -32 -18 -39 -14 -10 -15 -15
-6 -21 9 -5 5 -12 -14 -25 -17 -11 -23 -20 -16 -25 7 -4 9 -15 6 -24 -3 -10 1
-24 10 -31 24 -20 18 -25 -33 -26 -39 -2 -43 0 -25 8 28 13 32 25 21 64 -7 26
-12 31 -32 27 -16 -3 -28 -15 -35 -33 -5 -16 -23 -35 -38 -44 -16 -8 -35 -22
-42 -30 -17 -21 -31 -20 -31 0 0 12 -7 15 -25 12 -13 -3 -22 -1 -19 3 2 4 -4
13 -14 18 -31 17 -65 -39 -71 -118 l-6 -66 -21 28 c-25 30 -48 36 -41 10 17
-63 17 -75 -3 -100 -28 -36 -74 -63 -98 -56 -14 3 -21 -1 -25 -16 -3 -12 -1
-18 4 -15 5 3 8 -18 7 -49 -2 -53 -3 -54 -25 -44 -24 11 -22 27 5 27 12 0 13
3 4 12 -7 7 -12 21 -12 31 0 17 -4 15 -22 -9 -13 -16 -26 -30 -30 -32 -12 -5
-10 -52 2 -52 6 0 10 -9 10 -20 0 -11 7 -20 15 -20 8 0 15 -4 15 -9 0 -16 -21
-24 -32 -13 -13 13 -50 -19 -48 -39 5 -36 0 -42 -31 -35 -23 4 -35 2 -43 -10
-10 -14 -14 -13 -34 4 -15 13 -19 21 -11 24 7 2 9 10 5 16 -5 9 -12 9 -28 1
-11 -6 -36 -9 -54 -6 -39 7 -54 -8 -28 -28 11 -7 21 -10 24 -5 7 11 60 9 60
-3 0 -19 35 -35 66 -30 31 5 62 -16 36 -25 -7 -2 -10 -8 -6 -13 3 -5 -2 -9
-10 -9 -8 0 -21 -7 -30 -15 -12 -12 -20 -13 -40 -3 -15 6 -26 16 -25 22 4 32
-2 38 -31 34 -17 -3 -33 -1 -36 4 -7 11 -24 10 -24 -2 0 -5 7 -10 15 -10 20 0
19 -24 -1 -41 -9 -7 -20 -24 -25 -37 -7 -18 -15 -23 -29 -19 -11 3 -20 1 -20
-4 0 -15 -27 -10 -34 7 -3 8 -11 12 -17 8 -6 -3 -15 0 -20 7 -7 11 -9 10 -9
-3 0 -10 -6 -18 -12 -18 -9 -1 -8 -5 3 -13 8 -7 18 -20 22 -29 5 -15 2 -16
-22 -12 -20 4 -30 1 -34 -10 -4 -10 -1 -16 9 -16 8 0 13 -4 9 -9 -3 -5 -1 -12
5 -16 6 -3 13 1 16 10 6 14 8 14 20 -3 15 -21 7 -66 -10 -57 -6 3 -19 8 -29
11 -12 4 -17 13 -14 25 6 23 -4 31 -22 19 -9 -5 -11 -14 -6 -26 9 -22 11 -30
16 -64 3 -18 -2 -27 -21 -37 -14 -7 -19 -13 -12 -13 7 0 4 -8 -8 -20 -11 -11
-17 -26 -13 -35 4 -12 9 -13 16 -6 21 21 43 12 42 -16 0 -22 -4 -27 -20 -25
-11 2 -26 9 -32 14 -10 8 -13 5 -13 -12 0 -27 -26 -60 -47 -60 -8 0 -11 -4 -8
-10 3 -5 15 -10 26 -10 10 0 19 5 19 10 0 6 6 10 14 10 19 0 29 -30 12 -36 -8
-3 -18 -24 -22 -47 -3 -23 -12 -46 -19 -52 -16 -13 -27 -85 -14 -85 22 0 4
-45 -18 -48 -13 -2 -23 -9 -23 -16 0 -8 -7 -19 -15 -26 -21 -17 -19 -30 4 -30
19 0 71 -78 71 -107 0 -7 7 -16 15 -19 10 -4 12 -11 6 -22 -13 -25 -10 -72 4
-72 8 0 10 9 7 25 -3 20 0 25 15 25 21 0 27 -39 9 -52 -8 -5 -8 -13 0 -25 12
-20 7 -80 -8 -89 -5 -3 -16 -3 -25 0 -14 6 -14 8 1 25 13 14 14 21 5 26 -14 9
-48 -31 -49 -56 0 -9 -16 -24 -35 -33 -39 -19 -50 -32 -35 -41 14 -9 12 -36
-2 -34 -7 1 -26 -3 -41 -9 -16 -7 -32 -12 -36 -12 -5 0 -11 -9 -14 -20 -3 -14
5 -28 28 -49 l33 -29 -24 -11 c-13 -6 -24 -16 -24 -23 0 -10 -3 -9 -9 1 -7 11
-13 6 -26 -20 -10 -19 -24 -38 -31 -42 -8 -4 -14 -16 -14 -25 0 -12 -2 -14 -8
-4 -13 19 -72 -5 -72 -29 0 -11 7 -19 16 -19 9 0 14 -6 11 -12 -2 -7 -14 -12
-26 -10 -13 2 -28 -4 -36 -14 -10 -15 -16 -16 -27 -6 -8 6 -18 9 -21 5 -4 -3
-7 2 -7 12 0 14 -6 16 -32 11 -18 -3 -38 -13 -44 -21 -14 -18 -38 -19 -64 -3
-18 12 -24 8 -59 -32 l-39 -45 -27 25 c-22 21 -35 24 -75 22 -33 -3 -56 1 -72
12 -29 21 -48 20 -77 -4 -20 -17 -22 -26 -16 -56 l6 -37 -38 31 c-22 17 -48
42 -58 56 -11 14 -25 26 -32 26 -6 0 -13 3 -15 8 -1 4 -20 16 -40 26 -21 11
-38 23 -38 28 0 5 5 6 10 3 6 -3 10 -2 10 4 0 5 -4 13 -10 16 -5 3 -10 1 -10
-4 0 -6 -14 -9 -32 -7 -31 3 -58 28 -58 53 0 21 21 15 27 -7 4 -13 14 -20 30
-20 13 0 21 4 18 10 -3 6 -13 10 -21 10 -8 0 -18 8 -21 18 -10 27 -46 74 -75
100 -16 13 -28 31 -28 40 0 10 -15 29 -34 44 -25 20 -32 33 -29 50 3 15 -3 30
-16 42 -12 11 -21 24 -21 30 -1 6 -12 20 -25 31 l-24 19 45 42 c43 41 57 78
32 86 -8 3 -2 25 20 69 33 68 40 133 15 147 -11 7 -11 16 2 57 8 28 12 58 9
67 -2 9 1 21 8 27 7 6 25 21 40 34 22 18 27 30 27 72 1 28 -2 67 -5 88 -5 32
-11 39 -35 44 -36 7 -37 16 -3 31 l25 12 -20 29 c-12 16 -21 36 -21 44 0 8
-12 32 -26 53 -20 29 -24 42 -16 55 18 28 6 92 -21 114 -31 26 -45 87 -19 83
14 -2 16 3 14 30 -1 17 2 32 8 32 19 0 10 18 -12 25 -14 4 -18 8 -10 12 15 6
16 43 1 43 -6 0 -9 19 -7 47 3 41 8 50 37 70 26 18 37 20 53 12 11 -6 22 -8
26 -5 3 3 0 6 -6 6 -7 0 -12 9 -12 19 0 15 -6 19 -27 18 -23 -2 -28 2 -26 18
1 11 0 27 -4 35 -20 48 4 102 27 60 13 -24 30 -26 30 -5 0 8 4 15 10 15 5 0 9
28 9 63 0 34 5 75 12 91 12 25 11 29 -9 44 -14 11 -20 25 -17 40 2 14 -1 22
-11 22 -24 0 -16 36 11 48 19 9 25 19 25 45 0 18 5 38 11 44 15 15 2 50 -22
63 -15 9 -19 7 -19 -7 0 -13 -4 -10 -14 9 -21 40 -1 103 29 92 9 -4 14 1 14
13 -1 10 3 42 7 71 6 48 5 52 -13 52 -11 0 -27 7 -34 16 -11 14 -9 20 15 40
23 20 26 27 16 40 -7 8 -21 12 -31 9 -11 -4 -27 4 -43 20 -20 20 -26 35 -25
68 1 23 3 34 6 24 4 -15 24 -21 25 -7 0 27 -21 71 -45 94 -18 18 -26 31 -19
34 16 5 15 29 0 35 -23 8 10 31 48 34 20 1 44 9 53 18 10 8 23 15 29 15 7 0
12 4 12 9 0 15 -30 41 -46 41 -16 0 -18 9 -4 30 6 10 3 20 -11 33 -25 23 -26
85 -1 103 10 8 12 13 5 14 -22 0 -35 38 -21 63 6 12 11 34 9 50 -2 23 1 27 24
27 15 0 34 -9 44 -21 15 -18 21 -20 39 -10 23 12 48 5 71 -22 6 -8 21 -13 31
-10 22 6 26 18 10 28 -5 3 -10 20 -10 36 0 40 -16 69 -38 69 -10 0 -33 16 -52
35 -28 29 -32 39 -24 52 12 20 108 30 119 13 8 -12 55 -13 74 -1 11 7 5 18
-28 51 -22 23 -47 40 -54 37 -6 -2 -23 0 -37 6 -14 5 -54 10 -90 12 -85 4 -80
2 -80 23 0 9 -7 26 -15 36 -22 30 -20 76 4 76 12 0 23 9 27 23 8 27 38 69 80
112 18 17 33 40 35 50 2 10 17 22 33 26 16 5 41 19 55 32 14 14 37 28 51 32
14 4 33 14 44 21 29 20 63 0 58 -34z m-3910 -7 c14 -30 -3 -55 -38 -55 -25 0
-42 36 -30 65 9 25 55 18 68 -10z m-5394 -12 c2 -8 -5 -13 -17 -13 -12 0 -21
6 -21 16 0 18 31 15 38 -3z m5114 0 c34 -31 18 -63 -33 -63 -10 0 -19 -4 -19
-10 0 -22 -40 -9 -46 14 -8 32 2 46 31 46 12 0 25 7 29 15 7 19 15 19 38 -2z
m-5302 -169 c0 -8 -4 -14 -9 -14 -11 0 -22 26 -14 34 9 9 23 -3 23 -20z m-162
-3 c3 -8 -1 -12 -9 -9 -7 2 -15 10 -17 17 -3 8 1 12 9 9 7 -2 15 -10 17 -17z
m7097 10 c3 -5 1 -12 -5 -16 -5 -3 -10 1 -10 9 0 18 6 21 15 7z m-8065 -151
c0 -23 -5 -30 -19 -30 -25 0 -36 17 -21 35 8 9 8 15 0 20 -19 12 0 26 21 15
12 -7 19 -21 19 -40z m10150 15 c-6 -8 -9 -19 -6 -24 4 -5 2 -12 -3 -16 -10
-6 -31 24 -31 44 0 6 12 11 26 11 22 0 24 -2 14 -15z m-910 -89 c0 -2 -7 -7
-16 -10 -8 -3 -12 -2 -9 4 6 10 25 14 25 6z m2488 -39 c2 -9 -3 -17 -10 -17
-8 0 -14 9 -14 20 0 24 20 21 24 -3z m-40 -30 c3 -15 -1 -18 -16 -13 -11 4
-24 0 -32 -9 -16 -20 -26 -19 -34 2 -9 23 21 45 54 41 15 -2 26 -10 28 -21z
m-10328 -147 c0 -13 -37 -13 -45 0 -3 6 -3 15 0 20 7 12 45 -5 45 -20z m11508
-156 c24 -7 12 -32 -19 -39 -17 -4 -33 -4 -36 -1 -4 3 1 6 11 6 10 0 14 5 11
11 -4 6 -13 8 -21 5 -16 -6 -28 9 -19 24 5 9 33 7 73 -6z m-12924 -34 c39 -14
29 -50 -14 -50 -16 0 -39 31 -34 45 7 18 14 18 48 5z m12956 -30 c-6 -11 -15
-20 -20 -20 -14 0 -12 -34 2 -48 16 -16 2 -28 -15 -14 -8 7 -16 9 -20 6 -3 -3
-10 3 -16 14 -9 17 -5 25 27 51 43 35 57 39 42 11z m-6114 -12 c-10 -6 -20 -7
-24 -3 -9 8 20 25 31 18 5 -3 2 -10 -7 -15z m3379 3 c-3 -11 -1 -22 5 -26 20
-12 10 -35 -15 -35 -26 0 -33 18 -14 37 8 8 8 13 0 17 -18 12 -12 26 10 26 15
0 19 -4 14 -19z m2633 1 c2 -7 -2 -10 -12 -6 -9 3 -16 11 -16 16 0 13 23 5 28
-10z m-11903 -28 c25 -27 32 -44 17 -44 -10 0 -62 53 -62 63 0 15 22 6 45 -19z
m5945 16 c0 -5 -4 -10 -10 -10 -5 0 -10 5 -10 10 0 6 5 10 10 10 6 0 10 -4 10
-10z m6095 -20 c3 -5 1 -10 -4 -10 -6 0 -11 5 -11 10 0 6 2 10 4 10 3 0 8 -4
11 -10z m77 -36 c-7 -12 -11 -13 -17 -4 -4 7 -2 16 6 21 18 11 23 4 11 -17z
m-2772 -49 c0 -24 -5 -35 -15 -35 -30 0 -17 68 13 70 1 0 2 -16 2 -35z m2690
19 c0 -8 -5 -12 -10 -9 -6 4 -8 11 -5 16 9 14 15 11 15 -7z m-12854 -16 c4 -6
-1 -17 -11 -25 -20 -14 -35 -3 -35 25 0 15 36 16 46 0z m12824 -28 l35 -20
-40 2 c-29 2 -41 8 -43 21 -4 22 4 21 48 -3z m-11695 -130 c3 -5 -1 -10 -9
-10 -9 0 -16 5 -16 10 0 6 4 10 9 10 6 0 13 -4 16 -10z m11162 -6 c-3 -3 -12
-4 -19 -1 -8 3 -5 6 6 6 11 1 17 -2 13 -5z m-11951 -15 c11 -18 -13 -34 -31
-19 -8 7 -15 16 -15 21 0 13 38 11 46 -2z m-231 -54 c0 -24 -24 -30 -49 -12
-25 18 -12 39 22 35 19 -2 27 -9 27 -23z m12775 10 c0 -8 -4 -15 -10 -15 -5 0
-10 7 -10 15 0 8 5 15 10 15 6 0 10 -7 10 -15z m-11986 -61 c9 -3 16 -15 16
-26 0 -30 -54 -21 -58 10 -3 23 11 28 42 16z m-774 -39 c10 -12 10 -19 2 -27
-16 -16 -42 -2 -42 22 0 24 22 26 40 5z m9998 -38 c2 -10 -3 -17 -12 -17 -10
0 -16 9 -16 21 0 24 23 21 28 -4z m12 -137 c0 -5 -4 -10 -9 -10 -6 0 -13 5
-16 10 -3 6 1 10 9 10 9 0 16 -4 16 -10z m-9328 -25 c1 -15 -27 -29 -45 -22
-26 10 -9 39 20 35 13 -2 24 -7 25 -13z m-452 -255 c13 -9 13 -11 0 -20 -8 -5
-18 -10 -22 -10 -11 0 -20 19 -13 30 8 12 16 12 35 0z m12360 -205 c0 -8 -7
-15 -15 -15 -8 0 -15 7 -15 15 0 8 7 15 15 15 8 0 15 -7 15 -15z m-11220 -79
c0 -8 -8 -21 -18 -28 -30 -21 -33 -34 -17 -71 15 -35 51 -55 69 -37 15 15 82
12 96 -5 17 -20 4 -35 -32 -35 -17 0 -36 -7 -42 -15 -9 -13 -35 -16 -121 -17
-61 -1 -114 -5 -120 -8 -5 -4 -40 -10 -77 -13 -54 -4 -68 -2 -68 9 0 8 8 18
17 21 15 6 15 7 -3 14 -10 4 -33 8 -51 8 -38 1 -42 6 -36 50 4 25 13 36 37 46
17 7 34 11 38 9 17 -11 28 7 17 28 -6 11 -7 24 -2 29 9 9 160 25 256 28 44 1
57 -2 57 -13z m10900 -26 c0 -5 -4 -10 -10 -10 -5 0 -10 5 -10 10 0 6 5 10 10
10 6 0 10 -4 10 -10z m-36 -36 c20 -8 21 -44 2 -44 -7 0 -16 11 -18 25 -6 28
-6 27 16 19z m-7944 -74 c8 -15 8 -20 -3 -20 -14 0 -37 19 -37 32 0 16 30 7
40 -12z m70 -41 c0 -5 -7 -9 -15 -9 -8 0 -15 -4 -15 -10 0 -5 -11 -10 -25 -10
-14 0 -25 5 -25 10 0 6 12 10 26 10 18 0 25 4 21 14 -4 10 0 12 14 9 10 -3 19
-9 19 -14z m5642 -81 c-7 -7 -12 -8 -12 -2 0 14 12 26 19 19 2 -3 -1 -11 -7
-17z m1715 -427 c10 -17 10 -21 -5 -25 -9 -3 -22 -16 -27 -28 -11 -25 -36 -31
-42 -10 -3 7 4 12 17 12 18 0 21 4 17 21 -5 19 9 48 23 49 3 0 11 -9 17 -19z
m-150 -47 c-3 -3 -12 -4 -19 -1 -8 3 -5 6 6 6 11 1 17 -2 13 -5z m5690 -10
c12 -3 38 -29 57 -58 35 -50 35 -53 40 -176 4 -118 -2 -168 -18 -141 -4 6 -22
72 -41 146 -19 78 -42 146 -54 161 -20 26 -29 74 -13 74 4 0 17 -3 29 -6z
m-5532 -44 c8 -13 -5 -13 -25 0 -13 8 -13 10 2 10 9 0 20 -4 23 -10z m-155
-115 c0 -14 -4 -25 -10 -25 -5 0 -10 11 -10 25 0 14 5 25 10 25 6 0 10 -11 10
-25z m50 -81 c0 -9 -5 -14 -12 -12 -18 6 -21 28 -4 28 9 0 16 -7 16 -16z m-65
-5 c12 -19 -5 -23 -22 -6 -16 16 -16 17 -1 17 9 0 20 -5 23 -11z m-35 -86 c0
-5 -5 -15 -10 -23 -9 -13 -11 -13 -19 0 -7 10 -6 17 2 22 15 10 27 10 27 1z
m7210 -293 c10 -6 11 -10 3 -10 -7 0 -13 -6 -13 -14 0 -8 8 -13 17 -12 10 0
19 -7 21 -19 2 -11 10 -34 18 -52 15 -34 18 -63 7 -63 -34 -1 -38 -49 -4 -51
10 0 11 -2 4 -6 -24 -9 -13 -28 27 -46 31 -13 40 -23 40 -41 0 -13 -7 -29 -15
-36 -11 -9 -15 -9 -15 -1 0 7 -4 10 -9 7 -4 -3 -20 8 -35 24 -14 17 -22 30
-16 30 18 0 10 31 -14 53 -18 17 -22 27 -15 38 10 16 12 36 2 26 -9 -10 -32
25 -33 49 0 12 -7 27 -15 34 -8 7 -15 21 -15 31 0 10 -5 21 -10 24 -14 8 -3
24 24 35 28 11 28 11 46 0z m-287 -41 c32 13 51 -2 67 -54 10 -29 10 -40 1
-43 -6 -2 -10 -13 -10 -25 1 -17 2 -18 6 -4 2 9 8 17 11 17 12 0 52 -69 58
-99 5 -24 2 -31 -24 -44 -28 -14 -32 -13 -46 2 -19 21 -21 67 -3 74 9 4 9 6 0
6 -7 1 -17 -8 -23 -19 -6 -11 -19 -20 -29 -20 -10 0 -24 -7 -31 -15 -30 -36
-83 5 -73 56 3 17 -3 33 -21 52 -14 16 -26 34 -26 42 0 8 -4 17 -10 20 -16 10
-12 23 11 30 13 4 28 0 41 -12 16 -13 20 -14 16 -3 -8 24 21 51 43 40 11 -6
27 -7 42 -1z m-955 -124 c7 -14 12 -33 12 -42 0 -14 -2 -14 -19 1 -23 20 -34
66 -16 66 6 0 17 -11 23 -25z m-83 -14 c0 -17 -42 -34 -51 -20 -3 5 -3 17 0
25 7 19 51 15 51 -5z m1385 -11 c0 -5 -5 -10 -11 -10 -5 0 -7 5 -4 10 3 6 8
10 11 10 2 0 4 -4 4 -10z m-356 -144 c-3 -9 -12 -16 -20 -16 -18 0 -18 5 2 25
19 19 27 15 18 -9z m66 -2 c0 -8 -4 -12 -10 -9 -5 3 -10 10 -10 16 0 5 5 9 10
9 6 0 10 -7 10 -16z m-6970 -6 c0 -7 -4 -19 -9 -26 -7 -11 -10 -10 -15 3 -10
26 -7 35 9 35 8 0 15 -6 15 -12z m6857 -30 c-3 -8 -6 -5 -6 6 -1 11 2 17 5 13
3 -3 4 -12 1 -19z m88 2 c-3 -5 -10 -10 -16 -10 -5 0 -9 5 -9 10 0 6 7 10 16
10 8 0 12 -4 9 -10z m-25 -25 c0 -3 -9 -5 -20 -5 -11 0 -20 7 -20 15 0 13 4
14 20 5 11 -6 20 -13 20 -15z m370 21 c0 -9 -30 -14 -35 -6 -4 6 3 10 14 10
12 0 21 -2 21 -4z m-296 -20 c-5 -13 -34 -31 -34 -21 0 5 30 35 35 35 3 0 2
-6 -1 -14z m66 -27 c0 -5 -4 -9 -10 -9 -5 0 -10 7 -10 16 0 8 5 12 10 9 6 -3
10 -10 10 -16z m-14675 -49 c3 -5 21 -10 40 -10 31 0 34 -2 33 -30 -1 -30 -13
-41 -20 -18 -5 13 -48 -25 -48 -42 0 -5 -8 -10 -18 -10 -21 0 -58 40 -45 49 5
3 16 21 24 39 14 33 23 39 34 22z m7469 -5 c-24 -18 -44 -19 -44 -2 0 6 14 13
32 14 29 2 30 1 12 -12z m-6027 -181 c-3 -3 -12 -4 -19 -1 -8 3 -5 6 6 6 11 1
17 -2 13 -5z m5827 -116 c6 -26 -34 -75 -53 -64 -18 11 -13 33 9 39 12 3 20
14 20 26 0 28 16 27 24 -1z m-3136 -44 c12 -4 22 -13 22 -20 0 -8 8 -14 18
-14 34 0 92 -38 127 -84 22 -29 30 -46 21 -46 -8 0 -17 8 -21 18 -6 15 -8 15
-18 2 -7 -8 -18 -15 -24 -15 -21 0 -15 -20 7 -23 15 -3 20 -11 20 -37 0 -44
13 -51 49 -26 37 27 77 27 93 1 7 -11 18 -20 24 -20 24 0 62 -41 68 -74 4 -20
20 -49 37 -65 l29 -30 35 35 c37 37 77 46 74 17 -5 -56 -1 -61 49 -59 47 1 47
1 44 34 -2 34 -1 35 65 35 18 0 30 3 28 7 -3 5 5 6 16 3 12 -4 29 -19 38 -34
21 -37 41 -37 41 0 0 36 41 69 59 47 6 -7 7 -16 3 -20 -4 -4 0 -6 8 -4 8 2 19
12 25 23 14 25 63 23 118 -6 l37 -19 0 24 c0 18 6 25 23 28 17 2 23 11 25 36
2 20 10 36 20 40 9 3 32 17 51 29 19 13 41 21 48 19 7 -3 15 -1 19 5 3 6 24 7
49 4 24 -4 51 -2 62 3 16 9 28 2 75 -41 30 -29 68 -71 83 -94 15 -24 31 -43
35 -43 4 0 10 -9 13 -20 3 -14 14 -20 31 -20 18 0 26 -5 26 -18 0 -28 20 -42
53 -35 29 6 30 5 23 -22 -5 -18 -3 -31 5 -36 7 -4 12 -21 12 -38 0 -17 5 -31
11 -31 6 -1 27 -14 46 -30 24 -22 29 -30 17 -30 -11 0 -17 -8 -17 -23 0 -46
-59 -66 -80 -27 -8 15 -17 19 -31 15 -12 -4 -27 -1 -37 8 -15 13 -22 14 -57 1
-54 -19 -65 -18 -65 6 0 17 -5 19 -25 14 -14 -3 -31 -1 -38 5 -14 11 -57 7
-66 -7 -3 -4 -32 -16 -63 -26 -31 -9 -69 -28 -85 -42 -15 -13 -37 -24 -47 -24
-11 0 -29 -9 -40 -19 -13 -12 -48 -24 -90 -31 -38 -6 -77 -15 -87 -20 -10 -6
-27 -10 -38 -10 -11 0 -26 -6 -33 -13 -23 -22 -96 -50 -118 -44 -11 3 -34 1
-51 -3 -30 -9 -57 -2 -91 22 -15 10 -24 9 -52 -6 -19 -10 -39 -15 -45 -12 -6
4 -21 9 -33 11 -12 3 -24 8 -27 13 -7 9 -20 11 -123 13 -77 2 -78 2 -154 78
-19 19 -30 22 -56 17 -21 -4 -44 0 -62 9 -22 12 -32 12 -42 4 -10 -8 -21 -8
-41 -1 -43 17 -154 8 -169 -13 -7 -9 -17 -14 -23 -11 -5 4 -27 -3 -48 -14 -21
-11 -45 -20 -54 -20 -8 0 -19 -3 -22 -7 -4 -3 -19 -8 -34 -9 -28 -3 -73 -45
-73 -68 0 -11 -24 -24 -95 -51 -11 -5 -26 -7 -33 -6 -15 3 -92 -47 -92 -59 0
-4 -20 -10 -44 -13 -46 -7 -125 -54 -158 -94 -10 -12 -38 -31 -63 -43 -25 -12
-45 -26 -45 -31 0 -15 -36 -10 -50 6 -15 18 -57 20 -62 4 -3 -9 -10 -9 -26 0
-18 9 -21 17 -16 39 4 15 13 34 20 43 8 9 11 19 8 22 -4 4 -1 13 6 22 8 9 10
29 7 51 -7 45 6 74 35 74 23 0 47 -26 48 -51 0 -18 44 -59 63 -59 29 0 57 40
57 83 0 23 4 48 9 56 5 7 5 29 0 48 -4 22 -3 44 3 57 6 11 14 28 18 36 6 11
20 14 50 12 34 -2 41 0 37 12 -4 10 -1 13 9 9 8 -3 14 1 14 10 0 8 7 18 16 21
12 4 14 13 10 31 -4 16 -1 34 9 48 8 12 15 31 15 42 0 28 19 45 49 45 19 0 22
-3 13 -12 -21 -21 -13 -52 17 -70 32 -18 45 -11 53 27 2 13 14 22 33 25 28 5
29 6 10 18 -11 6 -14 12 -7 12 14 0 73 64 83 89 4 9 3 24 -2 33 -6 11 -3 34 7
65 21 61 27 128 15 152 -8 15 -3 26 27 58 35 37 39 39 72 29 47 -13 53 -25 29
-65 -12 -20 -16 -38 -11 -43 6 -6 16 5 26 26 18 39 25 43 44 24 8 -8 15 -8 27
2 23 19 35 1 25 -40 -7 -32 -9 -33 -15 -12 -10 32 -20 27 -35 -17 -17 -53 -9
-73 27 -65 40 10 46 15 34 27 -6 6 -11 14 -11 17 0 9 93 75 105 75 5 0 11 8
13 18 2 9 -1 17 -7 17 -6 0 -11 11 -11 24 0 14 -4 28 -10 31 -14 9 -12 43 3
60 14 17 15 17 45 9z m3115 -64 c-4 -14 0 -20 11 -20 9 0 21 -9 28 -20 7 -11
17 -20 23 -20 6 0 16 -9 23 -20 7 -11 19 -20 27 -20 20 0 19 -46 -1 -54 -9 -4
-14 -12 -10 -21 3 -8 9 -22 12 -30 4 -9 1 -15 -9 -15 -8 0 -17 7 -21 15 -3 8
-12 15 -20 15 -18 0 -66 43 -66 59 0 13 26 15 34 2 9 -14 41 -6 44 12 5 23
-30 29 -77 12 -30 -10 -41 -11 -39 -3 3 7 19 16 37 20 38 10 40 44 3 42 -18 0
-22 4 -20 20 1 12 -1 27 -5 34 -6 8 -2 12 11 12 15 0 19 -5 15 -20z m-33 -40
c0 -5 -4 -10 -10 -10 -5 0 -10 5 -10 10 0 6 5 10 10 10 6 0 10 -4 10 -10z
m-8382 -16 c12 -8 22 -23 22 -32 0 -10 -30 -47 -67 -84 -59 -57 -77 -69 -140
-88 -87 -26 -104 -24 -118 13 -8 23 -6 30 7 38 23 13 48 39 48 50 0 12 -64 38
-86 35 -27 -4 -28 -23 -3 -37 22 -11 22 -12 -11 -25 -18 -8 -40 -23 -47 -34
-13 -18 -26 -20 -116 -20 -134 0 -228 14 -244 36 -7 9 -10 20 -8 24 6 9 -45
20 -95 20 -23 0 -46 -8 -60 -20 -13 -11 -26 -20 -30 -20 -5 0 -11 -11 -14 -24
-5 -21 -16 -27 -73 -39 -38 -8 -113 -18 -168 -22 -93 -6 -102 -9 -131 -37 -32
-30 -33 -30 -171 -35 -173 -7 -213 -1 -213 31 0 13 7 26 15 30 8 3 15 12 15
21 0 8 6 15 13 15 16 0 51 37 60 63 4 9 15 17 26 17 11 0 42 12 68 26 26 14
68 30 93 35 68 14 408 38 555 39 72 0 189 5 260 11 155 12 387 25 505 27 63 2
91 -2 108 -14z m200 -38 c4 6 29 10 55 10 42 -1 47 -4 45 -21 -4 -23 -67 -68
-126 -88 -36 -13 -42 -12 -47 1 -3 8 2 26 10 39 9 13 13 28 10 33 -10 17 18
40 33 27 9 -7 16 -7 20 -1z m6700 -18 c19 -19 14 -28 -13 -28 -18 0 -25 5 -25
20 0 22 20 26 38 8z m-9483 -33 c0 -13 -7 -21 -20 -22 -11 -1 -87 -7 -170 -13
-82 -6 -169 -12 -193 -14 -42 -4 -79 15 -67 33 7 12 85 21 230 28 72 3 132 7
135 9 2 3 22 4 45 2 32 -2 40 -7 40 -23z m5310 -25 c3 -5 -3 -10 -14 -10 -12
0 -21 5 -21 10 0 6 6 10 14 10 8 0 18 -4 21 -10z m-4977 -71 c2 -11 -12 -24
-45 -40 -26 -12 -65 -33 -85 -46 -21 -13 -42 -23 -48 -23 -18 0 -11 39 9 49
10 6 21 18 25 27 5 13 1 15 -19 12 -28 -6 -40 5 -31 28 9 23 189 16 194 -7z
m4988 8 c6 -17 -12 -67 -25 -67 -14 0 -23 36 -16 60 7 23 33 27 41 7z m-4642
-16 c3 -5 0 -13 -7 -19 -21 -17 -101 -42 -107 -32 -3 4 -18 12 -33 15 -15 4
-26 12 -24 19 6 17 161 33 171 17z m81 -1 c-3 -5 -17 -10 -31 -10 -13 0 -24 5
-24 10 0 6 14 10 31 10 17 0 28 -4 24 -10z m4654 -21 c17 -23 20 -33 11 -39
-15 -9 -50 -1 -50 12 0 5 -4 7 -9 4 -5 -3 -11 4 -14 16 -6 22 6 38 29 38 5 0
21 -14 33 -31z m-144 -38 c-3 -6 -11 -8 -17 -5 -6 4 -5 9 3 15 16 10 23 4 14
-10z m-230 -21 c-3 -5 -10 -10 -16 -10 -5 0 -9 5 -9 10 0 6 7 10 16 10 8 0 12
-4 9 -10z m100 -10 c3 -5 1 -10 -4 -10 -6 0 -11 5 -11 10 0 6 2 10 4 10 3 0 8
-4 11 -10z m285 0 c0 -5 -13 -10 -30 -10 -16 0 -30 5 -30 10 0 6 14 10 30 10
17 0 30 -4 30 -10z m-6053 -17 c4 -9 1 -19 -5 -21 -19 -6 -14 -22 8 -22 13 0
20 -7 20 -20 0 -18 -7 -20 -78 -20 -44 0 -83 5 -89 11 -15 15 -5 39 16 39 9 1
34 12 56 25 48 29 64 30 72 8z m6053 -62 c0 -5 -6 -14 -14 -20 -16 -13 -32 2
-21 19 8 12 35 13 35 1z m13 -118 c-7 -2 -13 -13 -13 -24 0 -10 -4 -19 -9 -19
-4 0 -6 11 -3 25 2 15 11 25 21 24 10 0 11 -2 4 -6z m-298 -23 c3 -5 1 -10 -4
-10 -6 0 -11 5 -11 10 0 6 2 10 4 10 3 0 8 -4 11 -10z m275 -90 c0 -5 -5 -10
-11 -10 -5 0 -7 5 -4 10 3 6 8 10 11 10 2 0 4 -4 4 -10z m-87 -49 c10 -21 17
-43 17 -49 0 -14 -13 -16 -24 -4 -4 4 -19 7 -33 7 -32 0 -55 31 -33 45 8 5 16
15 16 22 1 7 2 16 3 20 3 19 40 -9 54 -41z m2252 -81 c3 -5 1 -10 -4 -10 -6 0
-11 5 -11 10 0 6 2 10 4 10 3 0 8 -4 11 -10z m-2209 -24 c11 -8 15 -18 10 -23
-5 -4 -11 -2 -13 5 -3 6 -11 12 -19 12 -8 0 -14 5 -14 10 0 14 13 12 36 -4z
m-50 -51 c23 -55 18 -88 -15 -108 -27 -16 -29 -16 -46 3 -21 24 -12 58 18 62
25 3 35 41 17 64 -10 10 -10 14 -1 14 7 0 19 -16 27 -35z m1304 -45 c0 -5 -6
-10 -12 -10 -7 0 -5 -5 5 -11 35 -21 16 -52 -40 -62 -31 -6 -31 -6 -22 26 12
42 69 90 69 57z m-170 -71 c0 -6 -9 -13 -20 -16 -11 -3 -20 -12 -20 -19 0 -18
-14 -18 -30 1 -14 17 -5 36 14 29 8 -3 17 -1 21 5 8 14 35 14 35 0z m77 -41
c-3 -8 -6 -5 -6 6 -1 11 2 17 5 13 3 -3 4 -12 1 -19z m83 -43 c7 -9 11 -17 9
-18 -2 -1 -17 -9 -32 -17 -24 -12 -30 -12 -37 0 -22 35 33 67 60 35z m-552
-253 c4 -14 0 -15 -22 -6 -9 3 -16 10 -16 14 0 12 33 5 38 -8z m80 -144 c-2
-18 -7 -33 -13 -33 -5 0 -11 15 -13 33 -3 24 1 32 13 32 12 0 16 -8 13 -32z
m557 -91 c51 1 85 -4 95 -12 8 -7 33 -18 55 -25 22 -7 47 -19 56 -26 8 -8 31
-17 50 -21 19 -3 46 -19 61 -35 32 -34 46 -35 58 -4 11 29 39 46 72 45 26 0
114 18 129 26 13 9 11 1 -8 -44 -12 -28 -24 -41 -40 -43 -16 -2 -20 -7 -14
-17 6 -8 14 -10 22 -5 8 5 21 9 29 9 8 0 15 7 15 15 2 62 55 101 145 105 25 1
52 4 60 7 38 15 50 17 50 8 0 -6 7 -10 15 -10 8 0 15 -7 15 -15 0 -19 -2 -19
48 5 51 25 76 16 77 -27 0 -24 4 -28 25 -25 14 1 31 10 38 19 11 16 12 16 12
0 0 -9 7 -17 15 -17 9 0 18 -7 22 -16 9 -23 58 -11 111 27 28 20 50 29 64 26
11 -3 29 -1 39 6 15 9 30 6 81 -22 45 -23 87 -36 146 -44 48 -7 82 -16 82 -23
0 -18 80 -25 97 -8 17 16 33 18 33 4 0 -5 8 -10 18 -10 10 0 22 -4 28 -9 5 -4
21 -11 37 -15 21 -5 33 -1 53 19 19 19 26 22 30 10 8 -19 42 -29 57 -17 7 5
22 13 34 16 18 6 20 4 16 -14 -4 -17 0 -20 23 -21 16 0 23 -3 16 -6 -8 -3 1
-12 22 -24 45 -24 46 -24 46 5 0 23 3 24 62 25 78 0 147 -15 171 -37 18 -16
20 -16 33 3 8 10 14 28 14 39 0 36 15 48 49 43 49 -8 120 -62 121 -92 0 -6 17
-9 39 -7 41 4 69 36 58 66 -4 9 -3 16 1 16 17 -1 33 -18 37 -41 3 -13 7 -36
10 -51 7 -28 -12 -77 -24 -62 -3 5 -14 15 -23 23 -16 12 -17 10 -13 -28 2 -23
6 -49 10 -60 3 -10 -1 -24 -10 -31 -13 -11 -18 -10 -31 8 -19 28 -32 28 -40 0
-6 -23 -64 -68 -88 -68 -7 0 -25 9 -39 20 l-25 20 -54 -29 c-47 -26 -60 -29
-113 -24 -78 8 -146 5 -159 -6 -6 -5 -22 -10 -36 -10 -14 -1 -59 -4 -100 -6
-41 -3 -125 -6 -187 -8 -61 -1 -115 -5 -119 -9 -13 -13 -54 -9 -54 6 0 10 -30
13 -147 14 -182 0 -249 10 -245 35 2 13 -4 17 -33 17 -20 0 -56 11 -82 24 -25
14 -51 22 -57 20 -7 -3 -21 4 -31 16 -10 11 -31 20 -47 20 -18 0 -28 5 -28 15
0 8 -16 25 -34 37 -19 13 -37 31 -40 41 -3 14 -12 17 -38 14 -19 -2 -39 -7
-46 -11 -7 -4 -16 -5 -21 -1 -5 3 -17 -2 -25 -11 -17 -17 -18 -16 -31 41 l-7
30 -18 -35 c-17 -32 -17 -37 -3 -52 15 -17 14 -19 -15 -29 -24 -8 -32 -17 -32
-35 0 -13 -9 -28 -20 -34 -15 -8 -20 -21 -20 -54 0 -37 -3 -45 -22 -49 -16 -4
-28 -21 -41 -57 -10 -27 -22 -50 -27 -50 -6 0 -10 -9 -10 -20 0 -14 -7 -20
-23 -20 -13 0 -33 -9 -46 -21 -17 -16 -30 -20 -55 -15 -37 7 -51 -1 -34 -21
16 -19 1 -30 -22 -15 -11 7 -27 12 -35 12 -8 0 -15 5 -15 11 0 17 -72 3 -83
-16 -4 -8 -12 -13 -17 -10 -14 9 -68 -23 -86 -50 -9 -13 -29 -31 -45 -39 -29
-14 -30 -14 -40 11 -8 21 -12 23 -24 13 -12 -10 -20 -8 -40 13 -14 13 -39 31
-56 37 -27 12 -30 17 -25 43 5 23 3 28 -9 23 -9 -3 -25 0 -37 7 -16 9 -22 9
-25 0 -3 -7 -12 -13 -21 -13 -15 1 -15 2 1 11 9 5 17 21 17 34 0 14 5 25 10
25 6 0 10 -4 10 -10 0 -5 7 -7 15 -4 8 4 15 12 15 19 0 19 -54 12 -58 -8 -2
-8 -14 -17 -28 -20 -18 -3 -22 -1 -15 6 6 6 11 19 11 29 0 11 7 18 19 18 23 0
40 22 23 28 -7 2 -10 7 -7 12 2 4 -4 15 -14 24 -16 15 -22 15 -40 4 -12 -7
-21 -22 -22 -33 -1 -14 -4 -10 -11 13 -6 17 -15 32 -20 32 -5 0 -1 11 8 25 9
14 21 25 28 25 16 0 33 48 35 99 3 57 5 61 47 61 24 0 34 5 34 15 0 8 9 24 20
35 26 26 25 54 -1 72 -20 13 -21 16 -7 43 12 21 13 37 6 63 -14 51 -6 63 39
55 21 -3 74 -6 118 -6z m-1055 -11 c0 -3 -4 -8 -10 -11 -5 -3 -10 -1 -10 4 0
6 5 11 10 11 6 0 10 -2 10 -4z m4111 -57 c31 -39 31 -55 -1 -59 -29 -4 -36 0
-54 35 -15 28 -17 37 -6 50 18 22 25 19 61 -26z m-182 -64 c22 -45 25 -99 7
-118 -22 -22 -39 -13 -72 36 -52 77 -75 142 -57 160 11 12 107 -50 122 -78z
m-2069 -170 c0 -25 -14 -34 -24 -16 -8 12 3 41 15 41 5 0 9 -11 9 -25z m-53
-47 c-3 -8 -6 -5 -6 6 -1 11 2 17 5 13 3 -3 4 -12 1 -19z m-77 -38 c0 -5 -2
-10 -4 -10 -3 0 -8 5 -11 10 -3 6 -1 10 4 10 6 0 11 -4 11 -10z m105 -56 c6
-43 -2 -75 -12 -46 -3 6 -12 12 -20 12 -10 0 -13 6 -9 16 3 9 6 27 6 40 0 44
27 27 35 -22z m-1172 -150 c10 -10 -12 -44 -27 -44 -11 0 -12 5 -3 25 12 26
19 30 30 19z m70 -44 c6 -23 -5 -33 -27 -24 -16 6 -22 45 -9 57 9 9 30 -10 36
-33z m57 -10 c0 -5 -5 -10 -11 -10 -5 0 -7 5 -4 10 3 6 8 10 11 10 2 0 4 -4 4
-10z m680 -74 c0 -3 -4 -8 -10 -11 -5 -3 -10 -1 -10 4 0 6 5 11 10 11 6 0 10
-2 10 -4z m-250 -26 c0 -5 -5 -10 -11 -10 -5 0 -7 5 -4 10 3 6 8 10 11 10 2 0
4 -4 4 -10z m-45 -60 c3 -5 1 -10 -4 -10 -6 0 -11 5 -11 10 0 6 2 10 4 10 3 0
8 -4 11 -10z m829 -551 c-6 -11 -24 -2 -24 11 0 5 7 7 15 4 8 -4 12 -10 9 -15z
m-1021 -11 c12 -7 31 -11 43 -9 11 1 27 -5 34 -13 7 -9 22 -16 34 -16 34 0 53
-17 38 -32 -17 -17 -15 -23 13 -36 15 -7 25 -8 25 -2 0 19 25 10 48 -18 18
-22 31 -27 63 -27 36 0 44 -5 40 -28 -1 -5 3 -6 9 -2 26 16 67 21 90 12 39
-16 52 -17 74 -5 15 8 22 7 31 -5 19 -26 77 -12 98 25 9 16 17 35 17 42 0 17
74 41 97 31 10 -5 29 -9 43 -10 14 0 39 -4 56 -9 29 -7 32 -5 38 24 6 31 7 32
46 25 38 -6 55 5 30 20 -19 12 0 25 21 15 13 -7 25 -7 38 0 43 22 101 2 101
-36 0 -26 20 -53 26 -37 3 7 12 9 20 6 11 -4 13 2 8 28 l-6 34 40 -43 41 -44
73 6 c121 9 108 10 206 -10 21 -4 32 -2 32 6 0 7 11 10 28 8 21 -2 27 -8 28
-28 0 -14 5 -33 10 -43 12 -20 6 -77 -7 -77 -5 0 -9 -11 -9 -25 0 -21 5 -25
30 -25 18 0 33 6 36 15 4 8 12 15 20 15 7 0 11 6 8 14 -3 8 5 21 18 30 22 16
22 18 5 27 -16 10 -17 13 -3 33 13 21 13 25 -2 40 -15 15 -15 16 1 16 9 0 24
11 33 25 20 30 44 32 67 5 17 -20 44 -29 32 -11 -3 5 9 16 26 25 29 15 32 14
48 -5 14 -17 23 -20 49 -14 18 3 32 11 32 16 0 5 24 6 58 3 41 -5 64 -13 83
-31 17 -16 29 -21 33 -14 4 6 16 11 27 11 11 0 24 11 30 24 13 28 51 41 77 27
10 -5 24 -28 30 -49 9 -30 20 -43 42 -51 29 -10 34 -39 7 -38 -59 2 -62 -1
-59 -48 4 -49 17 -52 27 -5 8 35 23 38 53 9 12 -11 27 -17 33 -13 6 3 10 -1 9
-12 -1 -11 -2 -25 -1 -31 1 -18 56 -16 71 2 14 17 72 20 101 5 14 -8 19 -7 19
2 0 9 3 9 12 0 7 -7 20 -12 30 -12 22 0 23 -16 3 -54 -19 -36 -19 -60 0 -26
14 26 14 27 29 -24 4 -13 9 -13 35 0 39 20 48 44 22 65 -18 15 -18 18 -5 23 9
3 27 6 40 6 18 0 24 -5 24 -23 0 -12 -7 -32 -15 -44 -13 -18 -13 -22 0 -33 15
-13 11 -53 -7 -77 -5 -7 -6 -18 -1 -25 18 -28 18 -110 1 -149 -15 -33 -20 -35
-38 -14 -7 8 -21 15 -31 15 -13 0 -21 12 -29 40 -6 21 -15 42 -20 45 -6 3 -10
14 -10 23 0 26 -64 81 -102 88 -31 6 -32 6 -13 -9 16 -13 18 -18 8 -28 -15
-15 -17 -79 -3 -79 6 0 10 5 10 10 0 20 27 9 39 -16 22 -48 -13 -86 -47 -52
-7 7 -17 14 -22 14 -6 1 -15 2 -21 3 -5 0 -7 6 -4 12 4 6 0 9 -11 7 -12 -2
-23 7 -32 24 -7 16 -22 33 -33 38 -10 6 -19 16 -19 23 0 7 -12 30 -26 51 -15
21 -24 46 -21 57 8 29 -9 32 -26 5 -10 -15 -15 -44 -14 -83 2 -75 -34 -153
-70 -153 -13 0 -28 -9 -35 -20 -19 -30 -38 -25 -38 11 0 17 -4 38 -9 47 -5 9
-11 38 -15 64 -7 46 -7 46 29 59 40 15 44 24 15 39 -18 10 -27 4 -70 -38 -35
-34 -46 -52 -38 -60 7 -7 5 -10 -8 -9 -14 2 -18 -4 -16 -18 5 -25 -2 -19 -22
20 -14 26 -16 27 -21 9 -7 -21 -31 -68 -66 -130 l-23 -41 24 -45 c22 -43 22
-46 7 -69 -10 -13 -17 -18 -17 -11 0 6 -11 12 -25 12 -32 0 -46 28 -50 98 -2
45 -7 60 -26 75 l-24 19 -6 -33 c-5 -31 -20 -68 -67 -167 -15 -30 -17 -32 -29
-16 -7 9 -22 17 -35 18 -28 1 -34 26 -20 75 19 64 21 98 8 116 -12 17 -16 14
-50 -36 -73 -107 -81 -118 -93 -119 -7 0 -13 -4 -13 -10 0 -5 -8 -10 -19 -10
-21 0 -45 -23 -34 -33 3 -4 9 -28 13 -54 8 -51 2 -63 -36 -63 -12 0 -24 -7
-28 -15 -7 -20 -18 -19 -44 5 -12 11 -26 20 -31 20 -28 0 -30 60 -5 147 14 48
14 55 -2 88 -18 40 -38 44 -62 15 -20 -24 -66 -32 -67 -11 0 28 -22 21 -63
-18 -22 -22 -50 -44 -61 -50 -11 -6 -28 -24 -37 -40 -23 -39 -99 -66 -165 -58
-52 6 -72 -6 -44 -27 10 -7 16 -22 13 -37 -2 -19 -12 -26 -43 -34 -22 -5 -42
-12 -45 -15 -11 -12 -79 -60 -85 -60 -4 0 -15 10 -25 23 -18 22 -18 22 11 49
32 30 34 36 16 59 -13 17 -82 15 -71 -2 9 -15 -24 -10 -40 6 -8 8 -25 16 -38
17 -19 3 -23 -2 -24 -27 -2 -47 -3 -50 -16 -37 -7 7 -27 12 -45 12 -24 0 -33
5 -33 16 0 11 -6 15 -18 12 -16 -5 -42 19 -42 37 0 3 27 3 60 0 56 -5 80 5 45
19 -8 3 -15 16 -15 29 0 30 -25 52 -74 66 -21 5 -49 20 -62 32 -21 20 -27 21
-49 9 -26 -14 -88 -4 -85 14 1 5 -4 13 -12 17 -8 6 -9 9 -1 9 6 0 26 12 43 26
34 29 28 44 -18 44 -13 0 -36 10 -52 22 -28 20 -29 23 -14 40 9 9 21 15 27 11
6 -4 8 0 4 10 -3 9 -1 17 5 19 19 7 -11 47 -40 54 -15 4 -42 20 -60 36 -18 15
-37 28 -42 28 -6 0 -10 9 -10 20 0 11 -4 20 -10 20 -5 0 -10 7 -10 16 0 8 -13
34 -28 57 -41 59 -45 85 -19 98 12 7 24 13 26 15 2 2 -6 15 -18 30 -11 15 -21
22 -21 15 0 -6 -4 -11 -10 -11 -16 0 -11 33 10 68 25 41 25 56 0 49 -13 -3
-20 0 -20 9 0 17 34 18 63 2z m2651 -149 c-4 -7 0 -9 14 -5 17 6 31 -3 67 -40
38 -40 57 -74 41 -74 -2 0 -11 -3 -20 -6 -10 -4 -20 5 -31 31 -13 34 -18 37
-44 32 -30 -6 -58 12 -43 28 4 4 -4 4 -18 0 l-25 -7 24 26 c24 26 49 36 35 15z
m508 -79 c6 0 16 -8 23 -17 10 -13 8 -23 -9 -52 -11 -20 -25 -38 -31 -40 -5
-2 -27 -22 -47 -44 l-37 -41 -33 17 c-18 9 -45 18 -60 22 -57 11 -94 85 -43
85 30 0 72 34 56 45 -27 16 -8 24 25 10 34 -14 36 -14 41 5 6 22 42 27 61 8
17 -17 15 -26 -5 -31 -10 -3 2 -5 27 -5 25 0 37 2 28 5 -12 3 -18 14 -17 31 0
15 3 21 6 15 2 -7 9 -13 15 -13z m-204 -248 c2 -7 -2 -10 -12 -6 -9 3 -16 11
-16 16 0 13 23 5 28 -10z m-2802 -116 c1 -1 4 -14 8 -29 6 -26 4 -28 -16 -25
-17 2 -22 9 -20 22 2 11 -4 26 -15 34 -16 12 -15 13 12 6 17 -4 30 -7 31 -8z
m2031 -53 c-3 -3 -11 -2 -17 2 -9 6 -9 10 1 16 14 8 27 -7 16 -18z m-2122 -23
c3 -5 1 -10 -4 -10 -6 0 -11 5 -11 10 0 6 2 10 4 10 3 0 8 -4 11 -10z m2192
-45 c3 -9 3 -18 0 -21 -7 -8 -47 15 -47 26 0 16 40 11 47 -5z m-994 -148 c5
-13 -19 -54 -27 -46 -7 7 6 59 14 59 4 0 10 -6 13 -13z m-96 -13 c-3 -3 -12
-4 -19 -1 -8 3 -5 6 6 6 11 1 17 -2 13 -5z m-575 -66 c-6 -6 -15 -8 -19 -4 -4
4 -1 11 7 16 19 12 27 3 12 -12z m76 -162 c-15 -18 -27 7 -16 34 l11 25 7 -25
c4 -14 3 -29 -2 -34z m-40 6 c2 -7 -3 -12 -12 -12 -9 0 -16 7 -16 16 0 17 22
14 28 -4z m-2733 -30 c28 -41 31 -58 12 -65 -18 -7 -67 3 -67 14 0 4 -13 16
-30 26 -48 28 -36 57 25 60 30 1 39 -3 60 -35z m-41 -131 c13 -14 15 -28 10
-61 -7 -42 -7 -42 -41 -37 -45 8 -63 23 -63 55 0 54 59 81 94 43z m-664 -104
c0 -18 -76 -91 -84 -79 -3 5 2 19 12 30 9 11 25 30 34 41 20 24 38 27 38 8z
m-176 -202 c3 -8 1 -15 -4 -15 -5 0 -6 -15 -3 -34 5 -32 3 -35 -23 -38 -22 -2
-33 -11 -43 -35 -15 -33 -34 -42 -47 -22 -9 16 27 86 52 100 12 6 27 22 33 35
12 27 26 31 35 9z m1476 -16 c0 -11 -4 -18 -10 -14 -5 3 -7 12 -3 20 7 21 13
19 13 -6z m-600 -133 c0 -8 -4 -18 -10 -21 -5 -3 -10 3 -10 14 0 12 5 21 10
21 6 0 10 -6 10 -14z m-944 -76 c27 -11 32 -30 8 -30 -13 0 -15 -7 -9 -38 5
-34 3 -40 -25 -60 -36 -27 -40 -64 -9 -90 36 -30 41 -48 24 -88 -8 -20 -15
-47 -15 -60 0 -18 -9 -28 -37 -39 -20 -8 -43 -25 -51 -36 -12 -17 -21 -19 -57
-13 -24 3 -49 3 -56 -1 -11 -7 -32 -11 -114 -18 -20 -1 -47 -17 -74 -42 -23
-22 -49 -44 -57 -48 -8 -4 -21 -21 -29 -36 -12 -25 -12 -31 0 -41 17 -14 79
-4 120 20 17 10 56 21 87 25 54 6 59 5 83 -21 31 -34 32 -56 1 -87 -12 -13
-25 -29 -27 -36 -3 -7 -20 -16 -39 -20 -22 -4 -39 -15 -45 -29 -12 -26 -21
-27 -70 -6 -20 8 -49 14 -63 12 -14 -2 -27 2 -29 8 -5 15 47 28 60 15 5 -5 18
-6 31 -1 11 5 33 11 47 14 23 5 109 77 109 92 0 12 -97 -10 -140 -31 -30 -15
-51 -20 -65 -14 -11 4 -37 8 -57 8 -43 1 -46 5 -54 63 -5 37 -2 48 23 77 44
52 106 115 125 126 27 15 27 58 1 70 -30 13 -29 40 3 101 40 77 67 95 141 93
35 -1 66 1 70 4 3 4 17 7 30 7 18 0 23 -5 23 -27 0 -46 -14 -59 -45 -45 -26
12 -59 9 -105 -10 -63 -26 -75 -37 -75 -65 0 -27 2 -28 50 -27 40 1 63 9 108
38 31 20 68 41 82 46 25 10 36 50 14 50 -17 0 -1 50 27 87 13 17 24 39 24 47
0 23 -53 20 -75 -4 -17 -19 -65 -28 -65 -12 0 18 34 54 68 72 37 19 78 19 128
0z m-186 -19 c0 -5 -7 -14 -15 -21 -8 -7 -15 -20 -15 -30 0 -17 -19 -30 -44
-30 -19 0 -16 31 6 63 18 26 68 39 68 18z m1233 -208 c4 -3 -11 -25 -32 -48
-21 -23 -40 -48 -43 -56 -3 -8 -18 -14 -36 -15 -20 0 -42 -11 -61 -30 -16 -16
-39 -37 -50 -46 -28 -24 -26 -47 9 -120 31 -64 38 -102 20 -113 -6 -4 -10 -24
-8 -45 1 -31 -5 -46 -33 -79 -19 -22 -44 -53 -56 -69 -13 -17 -35 -33 -50 -37
-16 -3 -37 -15 -48 -25 -11 -10 -42 -22 -70 -26 l-50 -7 37 38 c20 21 47 39
61 40 13 2 35 12 48 23 13 11 34 29 47 39 19 15 26 34 34 99 l10 81 -36 51
-35 51 15 64 c14 57 20 66 63 95 30 21 59 32 81 32 27 0 45 9 78 41 23 22 42
44 42 49 0 14 52 25 63 13z m-1593 -165 c0 -28 -13 -58 -24 -58 -7 0 -10 -15
-8 -43 3 -30 -1 -47 -12 -56 -9 -8 -16 -29 -16 -47 0 -19 -4 -34 -10 -34 -5 0
-14 -18 -20 -41 -6 -22 -17 -42 -25 -45 -8 -3 -17 -20 -21 -37 -3 -18 -12 -39
-19 -47 -8 -8 -15 -33 -17 -55 -2 -32 -7 -41 -24 -43 -44 -6 -39 25 32 173 37
77 62 162 52 179 -12 21 1 45 33 62 25 12 29 20 27 47 -1 18 2 38 6 45 10 16
46 16 46 0z m10148 -13 c14 -29 -2 -34 -18 -6 -12 24 -13 31 -2 31 5 0 14 -11
20 -25z m-8378 -198 c0 -14 -19 -37 -31 -37 -3 0 -6 11 -6 25 0 18 5 25 18 25
11 0 19 -6 19 -13z m-66 -103 c5 -12 -24 -85 -40 -103 -1 -1 -12 6 -24 16 -23
22 -20 39 13 85 20 27 41 28 51 2z m-1675 -53 c8 -6 10 -14 5 -22 -5 -8 -7
-21 -6 -30 2 -13 -7 -18 -39 -21 -53 -5 -61 13 -23 53 29 31 40 34 63 20z m76
-51 c3 -5 -3 -10 -14 -10 -12 0 -21 5 -21 10 0 6 6 10 14 10 8 0 18 -4 21 -10z
m9735 -99 c0 -49 -20 -26 -26 30 -5 41 -4 43 10 25 9 -11 16 -36 16 -55z
m-9686 22 c-30 -24 -83 -43 -121 -43 -12 0 -25 -4 -28 -10 -11 -18 -50 -10
-83 18 -24 20 -30 31 -23 42 9 12 13 11 32 -9 18 -19 28 -22 58 -16 20 3 56 8
80 12 24 3 52 14 62 24 11 11 25 16 35 12 15 -5 13 -10 -12 -30z m1466 17 c0
-17 -23 -75 -36 -89 -2 -2 -10 2 -19 9 -23 19 -19 66 7 84 31 22 48 20 48 -4z
m-1410 -84 c0 -8 -72 -76 -81 -76 -14 0 -11 6 23 44 26 30 58 47 58 32z
m10250 -57 c0 -22 -4 -39 -10 -39 -5 0 -10 5 -10 12 0 7 -12 22 -27 34 -16 12
-25 26 -21 30 4 4 14 1 23 -6 13 -10 15 -9 15 10 0 19 2 20 15 10 9 -7 15 -29
15 -51z m-10499 8 c-13 -13 -26 -3 -16 12 3 6 11 8 17 5 6 -4 6 -10 -1 -17z
m-103 -14 c3 -19 -1 -23 -22 -23 -29 0 -39 11 -30 35 10 24 48 15 52 -12z
m1682 9 c0 -5 -10 -18 -23 -30 l-24 -22 5 30 c3 21 10 30 23 30 11 0 19 -4 19
-8z m8350 -18 c0 -14 -4 -23 -10 -19 -5 3 -10 15 -10 26 0 10 5 19 10 19 6 0
10 -12 10 -26z m-9842 -8 c3 -13 -1 -17 -14 -14 -11 2 -20 11 -22 22 -3 13 1
17 14 14 11 -2 20 -11 22 -22z m10446 -68 c9 -18 20 -55 25 -83 11 -59 37
-122 57 -142 8 -8 14 -26 14 -41 l0 -27 -25 30 c-13 17 -25 39 -25 50 0 11
-12 38 -25 60 -14 22 -25 48 -25 58 0 10 -9 35 -20 57 -11 22 -20 46 -20 55 0
27 29 16 44 -17z m-628 -105 c-11 -27 -26 -2 -26 42 0 24 -4 47 -10 50 -17 11
-11 23 13 27 20 3 22 -1 25 -51 2 -30 1 -60 -2 -68z m734 64 c0 -40 -1 -41
-15 -20 -10 14 -13 32 -9 48 9 37 24 20 24 -28z m-10502 1 c19 -19 14 -28 -13
-28 -24 0 -34 18 -18 33 9 10 17 9 31 -5z m1332 -63 c-14 -25 -28 -45 -32 -45
-14 0 2 83 19 96 33 24 39 -3 13 -51z m-1433 40 c4 -14 -55 -35 -98 -35 -35 1
-74 22 -62 33 10 11 48 8 60 -4 8 -8 17 -7 35 5 24 18 59 18 65 1z m-767 -3
c0 -11 -22 -32 -32 -32 -5 0 -4 9 2 20 11 20 30 28 30 12z m560 -13 c0 -6 -4
-7 -10 -4 -5 3 -10 11 -10 16 0 6 5 7 10 4 6 -3 10 -11 10 -16z m9930 -40 c0
-6 -4 -7 -10 -4 -5 3 -10 11 -10 16 0 6 5 7 10 4 6 -3 10 -11 10 -16z m910 2
c0 -5 3 -23 6 -40 6 -26 4 -31 -14 -31 -26 0 -34 24 -20 55 11 24 28 34 28 16z
m-9264 -76 c8 -19 -22 -65 -41 -65 -18 0 -18 2 -1 45 16 37 33 45 42 20z
m-1231 -5 c3 -6 -1 -13 -10 -16 -19 -8 -30 0 -20 15 8 14 22 14 30 1z m-322
-62 c-8 -15 -31 -8 -36 11 -8 30 14 45 28 18 7 -12 10 -25 8 -29z m265 37 c11
-10 -34 -34 -63 -35 -45 0 -74 33 -37 43 19 6 93 0 100 -8z m10588 -45 c4 -28
3 -32 -6 -20 -9 11 -13 12 -17 3 -9 -24 -20 -13 -16 15 11 65 27 66 39 2z
m-851 11 c3 -5 1 -12 -4 -15 -5 -3 -11 1 -15 9 -6 16 9 21 19 6z m-10087 -21
c21 0 23 -2 12 -16 -36 -42 -76 -36 -64 10 5 20 10 24 17 17 6 -6 22 -11 35
-11z m-774 -27 c-4 -13 -15 -18 -39 -18 -18 0 -37 4 -41 8 -4 4 2 7 14 7 11 0
24 5 27 10 11 18 44 12 39 -7z m76 -1 c0 -13 -12 -22 -22 -16 -10 6 -1 24 13
24 5 0 9 -4 9 -8z m30 -2 c0 -5 -5 -10 -11 -10 -5 0 -7 5 -4 10 3 6 8 10 11
10 2 0 4 -4 4 -10z m11527 -22 c-3 -7 -5 -2 -5 12 0 14 2 19 5 13 2 -7 2 -19
0 -25z m-11737 6 c0 -12 -7 -14 -30 -9 -19 4 -36 2 -45 -5 -12 -10 -15 -9 -15
3 0 19 14 25 58 26 23 1 32 -3 32 -15z"/>
<path d="M10560 14852 c0 -11 7 -25 15 -32 12 -10 15 -9 15 8 0 11 -7 25 -15
32 -12 10 -15 9 -15 -8z"/>
<path d="M10500 14784 c0 -8 5 -12 10 -9 6 3 10 10 10 16 0 5 -4 9 -10 9 -5 0
-10 -7 -10 -16z"/>
<path d="M9620 14605 c0 -9 9 -15 25 -15 18 0 23 4 19 15 -4 8 -15 15 -25 15
-10 0 -19 -7 -19 -15z"/>
<path d="M9196 14544 c-4 -10 -2 -22 3 -27 7 -7 13 -5 17 7 4 10 2 22 -3 27
-7 7 -13 5 -17 -7z"/>
<path d="M9125 14498 c-11 -6 -27 -14 -35 -18 -8 -5 -14 -17 -13 -29 2 -12 -2
-21 -7 -21 -6 0 -10 -4 -10 -10 0 -18 29 -11 40 10 12 23 32 18 23 -5 -5 -15
12 -22 19 -7 2 4 18 18 37 31 28 19 37 21 58 12 36 -16 41 -13 14 9 -13 11
-34 20 -47 20 -12 0 -26 5 -29 10 -8 13 -24 12 -50 -2z"/>
<path d="M11615 14070 c3 -5 10 -10 16 -10 5 0 9 5 9 10 0 6 -7 10 -16 10 -8
0 -12 -4 -9 -10z"/>
<path d="M8459 14023 c-12 -15 -12 -16 4 -10 10 4 23 7 28 7 5 0 9 5 9 10 0
16 -26 12 -41 -7z"/>
<path d="M8526 14031 c-3 -5 1 -14 10 -21 11 -10 18 -10 27 -1 9 9 9 14 -3 21
-19 12 -27 12 -34 1z"/>
<path d="M11960 13680 c0 -5 5 -10 10 -10 6 0 10 5 10 10 0 6 -4 10 -10 10 -5
0 -10 -4 -10 -10z"/>
<path d="M12005 13579 c-4 -6 -5 -13 -2 -16 7 -7 27 6 27 18 0 12 -17 12 -25
-2z"/>
<path d="M12170 13540 c0 -5 5 -10 10 -10 6 0 10 5 10 10 0 6 -4 10 -10 10 -5
0 -10 -4 -10 -10z"/>
<path d="M11980 13476 c0 -37 16 -58 22 -29 5 25 -3 63 -13 63 -5 0 -9 -15 -9
-34z"/>
<path d="M12060 13500 c0 -5 5 -10 10 -10 6 0 10 5 10 10 0 6 -4 10 -10 10 -5
0 -10 -4 -10 -10z"/>
<path d="M11992 13403 c-10 -4 -10 -8 -1 -19 6 -7 9 -21 5 -29 -3 -9 0 -15 9
-15 8 0 15 6 15 14 0 8 5 16 11 18 13 4 0 38 -15 37 -6 0 -17 -3 -24 -6z"/>
<path d="M12261 13054 c0 -11 3 -14 6 -6 3 7 2 16 -1 19 -3 4 -6 -2 -5 -13z"/>
<path d="M12356 12874 c-10 -27 -7 -44 9 -44 8 0 15 9 15 20 0 11 5 20 10 20
6 0 10 5 10 10 0 16 -37 11 -44 -6z"/>
<path d="M12440 12637 c0 -19 16 -31 24 -18 3 5 -1 14 -9 21 -12 10 -15 10
-15 -3z"/>
<path d="M6120 12490 c0 -5 5 -10 11 -10 5 0 7 5 4 10 -3 6 -8 10 -11 10 -2 0
-4 -4 -4 -10z"/>
<path d="M12468 12465 c-18 -41 -11 -45 21 -12 18 20 19 26 8 35 -10 9 -17 4
-29 -23z"/>
<path d="M12086 12135 c-3 -9 0 -15 9 -15 8 0 15 7 15 15 0 8 -4 15 -9 15 -5
0 -11 -7 -15 -15z"/>
<path d="M5876 12071 c-3 -5 1 -11 9 -15 9 -3 15 0 15 9 0 16 -16 20 -24 6z"/>
<path d="M6516 11885 c-4 -11 2 -15 21 -15 21 0 24 2 13 15 -7 8 -16 15 -20
15 -4 0 -10 -7 -14 -15z"/>
<path d="M8712 11738 c3 -7 13 -15 22 -16 12 -3 17 1 14 10 -3 7 -13 15 -22
16 -12 3 -17 -1 -14 -10z"/>
<path d="M10110 11500 c0 -5 5 -10 11 -10 5 0 7 5 4 10 -3 6 -8 10 -11 10 -2
0 -4 -4 -4 -10z"/>
<path d="M8070 9830 c0 -5 5 -10 11 -10 5 0 7 5 4 10 -3 6 -8 10 -11 10 -2 0
-4 -4 -4 -10z"/>
<path d="M8875 9800 c-3 -5 1 -10 10 -10 9 0 13 5 10 10 -3 6 -8 10 -10 10 -2
0 -7 -4 -10 -10z"/>
<path d="M8896 9722 c-2 -4 -1 -13 3 -20 5 -9 12 -7 26 8 18 19 18 20 -3 20
-11 0 -23 -4 -26 -8z"/>
<path d="M6065 9661 c-3 -5 -1 -12 5 -16 5 -3 10 1 10 9 0 18 -6 21 -15 7z"/>
<path d="M8924 9606 c-9 -22 2 -46 21 -46 12 0 15 8 13 27 -3 30 -25 42 -34
19z"/>
<path d="M8962 9489 c2 -7 10 -15 17 -17 8 -3 12 1 9 9 -2 7 -10 15 -17 17 -8
3 -12 -1 -9 -9z"/>
<path d="M8800 9472 c0 -26 11 -34 27 -21 20 17 16 39 -7 39 -13 0 -20 -7 -20
-18z"/>
<path d="M8895 9419 c-10 -15 3 -25 16 -12 7 7 7 13 1 17 -6 3 -14 1 -17 -5z"/>
<path d="M8930 9421 c0 -5 7 -16 15 -25 17 -17 4 -31 -20 -22 -8 3 -15 2 -15
-3 0 -5 10 -11 21 -14 19 -5 21 -11 15 -41 -6 -29 -4 -36 8 -36 15 0 16 32 7
138 -1 14 -31 17 -31 3z"/>
<path d="M8800 9411 c0 -10 30 -24 37 -17 3 2 -5 9 -16 16 -12 6 -21 7 -21 1z"/>
<path d="M8840 9370 c0 -5 5 -10 10 -10 6 0 10 5 10 10 0 6 -4 10 -10 10 -5 0
-10 -4 -10 -10z"/>
<path d="M8919 9200 c-23 -19 -23 -19 -3 -20 11 0 25 -5 32 -12 9 -9 12 -5 12
20 0 37 -9 40 -41 12z"/>
<path d="M8885 9113 c4 -15 8 -37 10 -48 1 -11 3 -22 4 -25 2 -10 30 50 33 72
2 19 -2 24 -26 26 -27 3 -28 2 -21 -25z"/>
<path d="M8900 8480 c0 -5 -7 -10 -15 -10 -8 0 -15 -7 -15 -15 0 -10 10 -15
31 -15 20 0 29 -4 26 -12 -2 -7 -14 -12 -25 -10 -18 3 -22 -2 -22 -26 0 -16 8
-36 18 -45 22 -20 68 -23 70 -4 0 6 4 29 8 50 5 31 4 37 -10 37 -10 0 -14 5
-11 11 4 5 -1 19 -11 30 -18 20 -44 26 -44 9z"/>
<path d="M8948 8303 c-3 -4 -6 -29 -7 -56 -1 -35 2 -49 14 -53 14 -6 14 -8 -1
-19 -20 -14 -10 -37 13 -28 11 4 14 2 11 -8 -3 -8 -11 -13 -17 -11 -6 1 -11
-12 -11 -33 0 -57 15 -46 49 39 6 15 9 43 5 61 -3 19 -1 35 5 39 17 11 13 36
-6 43 -10 3 -25 12 -35 20 -9 8 -18 11 -20 6z"/>
<path d="M8572 8065 c-6 -11 -14 -18 -17 -15 -4 3 -8 -22 -8 -55 -1 -33 2 -60
6 -60 5 0 14 -11 21 -24 9 -16 16 -20 20 -12 4 7 0 23 -8 37 -11 16 -14 30 -8
42 5 9 6 26 2 37 -4 11 -3 25 2 32 6 7 8 18 6 25 -3 8 -8 6 -16 -7z"/>
<path d="M10320 7940 c0 -5 5 -10 11 -10 5 0 7 5 4 10 -3 6 -8 10 -11 10 -2 0
-4 -4 -4 -10z"/>
<path d="M5765 7580 c-3 -5 3 -10 14 -10 12 0 21 5 21 10 0 6 -6 10 -14 10 -8
0 -18 -4 -21 -10z"/>
<path d="M5920 7440 c0 -5 5 -10 10 -10 6 0 10 5 10 10 0 6 -4 10 -10 10 -5 0
-10 -4 -10 -10z"/>
<path d="M8530 7420 c-16 -4 -26 -14 -28 -28 -4 -27 5 -27 37 -3 29 22 25 39
-9 31z"/>
<path d="M6015 7350 c3 -5 8 -10 11 -10 2 0 4 5 4 10 0 6 -5 10 -11 10 -5 0
-7 -4 -4 -10z"/>
<path d="M6557 6322 c-21 -23 -7 -52 16 -34 8 7 21 10 30 6 17 -6 29 7 19 23
-14 21 -48 24 -65 5z"/>
<path d="M6543 6255 c0 -8 4 -15 9 -15 4 0 8 7 8 15 0 8 -4 15 -8 15 -5 0 -9
-7 -9 -15z"/>
<path d="M6585 6260 c-7 -12 2 -30 16 -30 5 0 9 9 9 20 0 21 -15 27 -25 10z"/>
<path d="M8570 6223 c-24 -10 -64 -43 -50 -43 16 0 70 32 70 42 0 4 -1 8 -2 7
-2 0 -10 -3 -18 -6z"/>
<path d="M6676 6153 c-11 -11 -6 -23 9 -23 8 0 15 4 15 9 0 13 -16 22 -24 14z"/>
<path d="M8284 5956 c-18 -8 -36 -21 -40 -29 -5 -8 -23 -22 -41 -31 -21 -11
-30 -21 -27 -31 7 -17 40 -20 49 -6 3 6 25 13 50 17 24 3 50 12 56 20 6 8 17
14 24 14 21 0 24 36 4 48 -24 15 -36 15 -75 -2z"/>
<path d="M8057 5826 c-3 -7 -1 -18 5 -24 13 -13 38 -4 38 13 0 7 -7 16 -16 19
-21 8 -21 8 -27 -8z"/>
<path d="M8410 5819 c0 -5 5 -7 10 -4 6 3 10 8 10 11 0 2 -4 4 -10 4 -5 0 -10
-5 -10 -11z"/>
<path d="M7795 5760 c-3 -5 -1 -10 4 -10 6 0 11 5 11 10 0 6 -2 10 -4 10 -3 0
-8 -4 -11 -10z"/>
<path d="M8100 5680 c0 -5 5 -10 10 -10 6 0 10 5 10 10 0 6 -4 10 -10 10 -5 0
-10 -4 -10 -10z"/>
<path d="M7555 5629 c-11 -17 1 -21 15 -4 8 9 8 15 2 15 -6 0 -14 -5 -17 -11z"/>
<path d="M6840 5180 c0 -5 5 -10 10 -10 6 0 10 5 10 10 0 6 -4 10 -10 10 -5 0
-10 -4 -10 -10z"/>
<path d="M12342 9904 c1 -9 9 -19 16 -22 9 -3 13 2 10 14 -1 9 -9 19 -16 22
-9 3 -13 -2 -10 -14z"/>
<path d="M11416 9811 c-4 -6 -3 -19 3 -28 9 -17 10 -17 17 0 8 21 -10 45 -20
28z"/>
<path d="M11138 9703 c-14 -4 -15 -8 -6 -23 9 -14 16 -16 25 -8 14 11 18 39 6
37 -5 -1 -16 -3 -25 -6z"/>
<path d="M11530 9680 c0 -5 5 -10 10 -10 6 0 10 5 10 10 0 6 -4 10 -10 10 -5
0 -10 -4 -10 -10z"/>
<path d="M11167 9644 c-9 -10 2 -24 18 -24 9 0 12 6 9 15 -6 16 -17 19 -27 9z"/>
<path d="M11536 9593 c-13 -14 -5 -33 14 -33 11 0 20 6 20 14 0 15 -24 28 -34
19z"/>
<path d="M11302 9499 c9 -28 12 -29 26 -15 13 12 13 18 2 30 -7 9 -18 16 -26
16 -10 0 -11 -6 -2 -31z"/>
<path d="M11230 9470 c0 -5 7 -10 15 -10 8 0 15 5 15 10 0 6 -7 10 -15 10 -8
0 -15 -4 -15 -10z"/>
<path d="M13487 9435 c-4 -8 -2 -17 3 -20 6 -4 10 0 10 9 0 8 6 17 13 19 7 4
6 6 -4 6 -9 1 -19 -6 -22 -14z"/>
<path d="M11650 9430 c0 -5 7 -10 16 -10 8 0 12 5 9 10 -3 6 -10 10 -16 10 -5
0 -9 -4 -9 -10z"/>
<path d="M13530 9340 c-12 -8 -10 -10 8 -10 13 0 20 4 17 10 -7 12 -6 12 -25
0z"/>
<path d="M12030 9320 c-9 -16 -8 -22 5 -26 21 -8 39 10 32 30 -9 22 -24 20
-37 -4z"/>
<path d="M13705 9240 c-3 -5 -1 -10 4 -10 6 0 11 5 11 10 0 6 -2 10 -4 10 -3
0 -8 -4 -11 -10z"/>
<path d="M13696 9172 c-3 -6 -1 -20 6 -32 16 -24 32 -27 20 -2 -5 9 -11 24
-14 32 -3 10 -6 11 -12 2z"/>
<path d="M13710 9042 c0 -10 41 -35 48 -28 3 3 0 6 -6 6 -7 0 -12 7 -12 15 0
8 -7 15 -15 15 -8 0 -15 -3 -15 -8z"/>
<path d="M11173 9007 c4 -10 7 -25 7 -33 0 -8 6 -14 14 -14 18 0 10 34 -12 52
-13 11 -15 10 -9 -5z"/>
<path d="M11165 8380 c-3 -5 3 -10 15 -10 12 0 18 5 15 10 -3 6 -10 10 -15 10
-5 0 -12 -4 -15 -10z"/>
<path d="M11164 8286 c-8 -22 3 -33 18 -18 9 9 9 15 0 24 -9 9 -13 7 -18 -6z"/>
<path d="M11120 8201 c0 -19 7 -31 23 -37 36 -16 57 -6 57 28 0 23 -4 29 -15
24 -8 -3 -26 -1 -40 4 -23 9 -25 7 -25 -19z"/>
<path d="M12777 7973 c-12 -12 -7 -22 8 -17 8 4 15 10 15 15 0 11 -14 12 -23
2z"/>
<path d="M12511 7914 c0 -11 3 -14 6 -6 3 7 2 16 -1 19 -3 4 -6 -2 -5 -13z"/>
<path d="M12645 7780 c3 -5 10 -10 16 -10 5 0 9 5 9 10 0 6 -7 10 -16 10 -8 0
-12 -4 -9 -10z"/>
<path d="M12400 7759 c0 -18 2 -19 15 -9 15 12 12 30 -6 30 -5 0 -9 -10 -9
-21z"/>
<path d="M12590 7760 c0 -15 7 -20 25 -20 23 0 24 2 13 20 -7 11 -18 20 -25
20 -7 0 -13 -9 -13 -20z"/>
<path d="M12462 7723 c2 -17 10 -29 21 -31 25 -5 33 26 11 43 -28 21 -36 18
-32 -12z"/>
<path d="M12445 7653 c-33 -8 -35 -17 -16 -47 l19 -29 16 31 c9 17 16 36 16
42 0 10 -2 11 -35 3z"/>
<path d="M12414 7538 c-13 -20 -22 -88 -12 -88 16 0 39 28 28 35 -16 10 -12
35 5 29 17 -7 18 -3 9 20 -7 19 -20 21 -30 4z"/>
<path d="M12340 7330 c0 -5 5 -10 10 -10 6 0 10 5 10 10 0 6 -4 10 -10 10 -5
0 -10 -4 -10 -10z"/>
<path d="M12220 7255 c0 -8 5 -15 10 -15 6 0 10 7 10 15 0 8 -4 15 -10 15 -5
0 -10 -7 -10 -15z"/>
<path d="M12280 7256 c0 -9 12 -13 35 -12 19 0 34 -3 35 -9 0 -8 -19 -11 -112
-15 -22 -1 -24 -20 -3 -20 8 0 20 -10 26 -22 l11 -21 18 23 c23 30 56 21 45
-13 -4 -12 -8 -34 -8 -49 0 -15 -4 -25 -8 -22 -10 6 -12 -9 -3 -19 7 -7 35 18
33 30 -2 8 24 75 41 105 15 27 12 33 -22 45 -48 15 -88 15 -88 -1z"/>
<path d="M12225 7170 c-3 -5 -1 -10 4 -10 6 0 11 5 11 10 0 6 -2 10 -4 10 -3
0 -8 -4 -11 -10z"/>
<path d="M12281 7071 c-8 -6 -9 -11 -3 -15 6 -3 14 -1 17 5 9 14 2 20 -14 10z"/>
<path d="M12180 7040 c0 -5 5 -10 10 -10 6 0 10 5 10 10 0 6 -4 10 -10 10 -5
0 -10 -4 -10 -10z"/>
<path d="M12265 6990 c-8 -12 20 -24 35 -15 5 3 10 10 10 16 0 12 -37 12 -45
-1z"/>
<path d="M12150 6858 c0 -9 5 -20 10 -23 13 -8 13 5 0 25 -8 13 -10 13 -10 -2z"/>
<path d="M12090 6830 c-8 -5 -11 -12 -8 -16 10 -9 58 4 58 16 0 13 -30 13 -50
0z"/>
<path d="M12156 6792 c4 -20 2 -31 -9 -35 -9 -3 -14 0 -13 10 0 9 -5 18 -11
20 -17 6 -17 -31 0 -45 6 -6 24 -13 40 -17 21 -6 27 -4 27 8 0 9 -4 19 -10 22
-5 3 -10 17 -10 30 0 13 -4 27 -10 30 -6 4 -7 -5 -4 -23z"/>
<path d="M12290 6676 c0 -2 7 -6 15 -10 8 -3 15 -1 15 4 0 6 -7 10 -15 10 -8
0 -15 -2 -15 -4z"/>
<path d="M12140 6631 c0 -6 5 -13 10 -16 6 -3 10 1 10 9 0 9 -4 16 -10 16 -5
0 -10 -4 -10 -9z"/>
<path d="M12110 6585 c-10 -12 -8 -16 15 -25 33 -13 32 -13 39 7 12 29 -32 44
-54 18z"/>
<path d="M12200 6544 c0 -8 5 -12 10 -9 6 4 8 11 5 16 -9 14 -15 11 -15 -7z"/>
<path d="M11990 6505 c0 -8 4 -15 10 -15 5 0 7 7 4 15 -4 8 -8 15 -10 15 -2 0
-4 -7 -4 -15z"/>
<path d="M11950 6420 c0 -5 7 -7 15 -4 8 4 15 8 15 10 0 2 -7 4 -15 4 -8 0
-15 -4 -15 -10z"/>
<path d="M12005 6403 c-11 -3 -24 -9 -29 -14 -6 -5 -20 -9 -33 -9 -17 0 -23
-6 -23 -21 0 -19 4 -21 38 -16 30 5 40 3 50 -13 10 -16 9 -21 -5 -29 -14 -8
-15 -13 -5 -33 7 -12 11 -16 9 -8 -2 8 7 28 20 44 20 23 21 31 11 44 -11 13
-10 14 15 8 16 -4 27 -2 27 4 0 5 -4 10 -10 10 -5 0 -10 9 -10 20 0 20 -13 23
-55 13z"/>
<path d="M12107 6390 c-16 -16 -16 -18 -2 -24 20 -7 35 0 35 19 0 22 -13 24
-33 5z"/>
<path d="M12162 6353 c14 -17 28 -16 28 1 0 8 -9 14 -19 13 -15 -1 -17 -4 -9
-14z"/>
<path d="M12072 6320 c-17 -28 -16 -30 21 -23 42 8 44 10 21 28 -25 19 -27 19
-42 -5z"/>
<path d="M11760 6190 c0 -5 5 -10 10 -10 6 0 10 5 10 10 0 6 -4 10 -10 10 -5
0 -10 -4 -10 -10z"/>
<path d="M2142 8337 c-14 -17 -7 -43 15 -51 24 -10 36 4 20 22 -8 10 -16 23
-19 31 -3 11 -6 10 -16 -2z"/>
<path d="M19405 6860 c-3 -5 4 -14 15 -20 16 -8 20 -8 20 4 0 16 -27 29 -35
16z"/>
<path d="M10501 5994 c0 -11 3 -14 6 -6 3 7 2 16 -1 19 -3 4 -6 -2 -5 -13z"/>
<path d="M8841 5901 c-15 -27 -14 -56 3 -70 10 -8 16 -8 23 1 11 15 27 85 17
75 -4 -4 -13 -2 -20 4 -9 8 -15 5 -23 -10z"/>
<path d="M10770 5619 c0 -5 5 -7 10 -4 6 3 10 8 10 11 0 2 -4 4 -10 4 -5 0
-10 -5 -10 -11z"/>
<path d="M2335 5934 l-20 -15 20 -15 c15 -12 34 -14 75 -9 71 9 89 25 28 25
-32 0 -48 5 -52 15 -7 19 -25 19 -51 -1z"/>
<path d="M6480 5479 c0 -11 4 -18 10 -14 5 3 7 12 3 20 -7 21 -13 19 -13 -6z"/>
<path d="M8850 4469 c0 -18 2 -19 15 -9 8 7 15 16 15 21 0 5 -7 9 -15 9 -9 0
-15 -9 -15 -21z"/>
<path d="M8560 4430 c0 -5 6 -10 14 -10 8 0 18 5 21 10 3 6 -3 10 -14 10 -12
0 -21 -4 -21 -10z"/>
<path d="M7810 3186 c0 -9 5 -16 10 -16 6 0 10 4 10 9 0 6 -4 13 -10 16 -5 3
-10 -1 -10 -9z"/>
<path d="M7882 3163 c-29 -6 -24 -26 7 -28 13 -1 26 -7 30 -14 5 -8 13 -6 26
9 17 19 17 20 -9 30 -15 5 -28 9 -29 9 -1 -1 -12 -4 -25 -6z"/>
<path d="M10025 3120 c3 -5 8 -10 11 -10 2 0 4 5 4 10 0 6 -5 10 -11 10 -5 0
-7 -4 -4 -10z"/>
<path d="M9986 3014 c-3 -9 -6 -31 -6 -50 0 -42 -15 -74 -35 -74 -17 0 -84
-69 -85 -87 0 -16 12 -17 28 -1 10 10 15 10 23 -2 9 -12 10 -10 6 7 -3 12 -2
22 2 21 9 -3 55 23 63 35 4 8 14 7 32 -1 23 -10 26 -9 36 24 8 23 8 39 2 47
-5 7 -13 27 -17 45 -8 37 -39 61 -49 36z"/>
<path d="M10087 2934 c-9 -10 2 -24 19 -24 8 0 14 7 14 15 0 15 -21 21 -33 9z"/>
<path d="M10496 2845 c-2 -7 6 -23 20 -36 l24 -22 0 21 c0 12 4 22 10 22 5 0
7 6 4 14 -7 17 -51 18 -58 1z"/>
<path d="M9590 2831 c0 -20 13 -41 21 -35 14 8 11 31 -6 38 -8 3 -15 1 -15 -3z"/>
<path d="M10113 2818 c-28 -44 -30 -56 -19 -92 16 -52 36 -46 36 12 0 26 3 57
6 70 7 24 -9 31 -23 10z"/>
<path d="M9880 2770 c0 -5 5 -10 10 -10 6 0 10 5 10 10 0 6 -4 10 -10 10 -5 0
-10 -4 -10 -10z"/>
<path d="M8316 2595 c-11 -8 -28 -15 -39 -15 -12 0 -17 -6 -15 -17 4 -22 74
-38 106 -24 30 14 29 49 -4 61 -30 12 -25 13 -48 -5z"/>
<path d="M4648 1178 c-35 -33 -106 -76 -137 -83 -41 -9 -24 -25 27 -25 59 0
171 72 159 103 -8 20 -30 22 -49 5z"/>
<path d="M5978 153 c-10 -2 -18 -12 -18 -20 0 -13 -9 -15 -60 -10 -35 4 -62 3
-65 -3 -3 -6 -24 -10 -46 -10 -49 0 -78 -29 -79 -77 l0 -33 95 0 c69 0 96 4
102 14 4 7 23 21 41 30 17 9 32 23 32 30 0 7 9 25 20 39 32 41 26 53 -22 40z"/>
</g>
</svg>
